<svg id="Capa_1" data-name="Capa 1" xmlns="http://www.w3.org/2000/svg" viewBox="0 0 762.95 456.04"><defs><style>.cls-1{fill:#b7081c;}</style></defs><title>FINCA CAPEANS_LOGO</title><path class="cls-1" d="M267.39,278.88a3.14,3.14,0,0,1-.62,3.81,7.25,7.25,0,0,1-5,1.89,23.86,23.86,0,0,1-7.29-.86,13.83,13.83,0,0,1-7.28-4.25,35.53,35.53,0,0,1-3.86-6.89,24.14,24.14,0,0,1-2.12-6.8,43.36,43.36,0,0,1-.31-4.86,58.4,58.4,0,0,1,.31-6A39.64,39.64,0,0,1,248,236.66a60.29,60.29,0,0,1,14.57-14,157.52,157.52,0,0,1,19.86-11.09c7.29-3.37,15-6.47,22.61-9.34s15.2-5.51,22.84-8.09c6.87-2.33,13.77-4.66,20.61-7.08q8.22-2.91,14.38-5.38a47.86,47.86,0,0,0,10.28-5.44,18.91,18.91,0,0,1,1.49,6.3,52.22,52.22,0,0,1,.13,8,39.42,39.42,0,0,1-1.06,7.2c-.54,2.12-1.19,3.36-1.93,3.72-6.68,2.28-10,3.41-16.69,5.59s-13.47,4.48-20.23,6.65-13.76,4.48-20.61,6.8a16.34,16.34,0,0,1,4.05,4.39,7.56,7.56,0,0,1,1.18,5.16q-2.61,6.58-5.23,13.85T309.1,259q4.36-1.77,8.85-3.37c3-1.07,6-2.18,9-3.28,3.14-1.15,6.39-2.35,9.71-3.62s6.56-2.6,9.72-4c.58-.05,1,.41,1.12,1.36a17.88,17.88,0,0,1,.18,3.53,38.16,38.16,0,0,1-.43,4.57,45.52,45.52,0,0,1-.94,4.68,21.79,21.79,0,0,1-1.3,3.8,3.81,3.81,0,0,1-1.37,1.86c-1.33.47-2.7.89-4.11,1.29s-2.85.76-4.24,1.16c-4.77,1.36-9.9,3-15.25,4.54s-14.12,3.31-16.25,5.73c-2.64,3-3.61,13.91-5.23,20.9-1.54,6.63-2.85,13.4-4,20.09-1,6-1.87,12.15-2.43,18.23-.53,5.72-.23,11.31-.44,15.29-.12,2.31-1.39,4-2.92,4.4a5.59,5.59,0,0,1-4.74-1.24,15.13,15.13,0,0,1-4.29-5.48,19.94,19.94,0,0,1-1.62-8.26c-.11-3.05-.58-7-.5-11.1s.37-8.38.87-12.93,1.16-9.28,2-14.21,1.79-10,2.87-15.1a74.48,74.48,0,0,0-8.1,6.62,44.14,44.14,0,0,0-6.6,7.91,15.93,15.93,0,0,0-1.43,2.76,33.25,33.25,0,0,0-1.24,3.73,23.64,23.64,0,0,0-.75,4.39,20.7,20.7,0,0,0,.19,4.66,12.86,12.86,0,0,0,1.06,3.55,9.05,9.05,0,0,0,2.3,3.07l.75,1.1a2.48,2.48,0,0,1-.38,3,5.28,5.28,0,0,1-3,1.33,11.12,11.12,0,0,1-4-.19,6.4,6.4,0,0,1-3.24-1.56,15.81,15.81,0,0,1-2.43-4.48,33.49,33.49,0,0,1-1.3-4.94,27.86,27.86,0,0,1-.19-7,48.45,48.45,0,0,1,1.12-7,46,46,0,0,1,1.93-6.25,26,26,0,0,1,2.37-4.73,68.51,68.51,0,0,1,12.51-14.47c4.39-3.81,12.64-7.61,14.76-10.34,2.89-3.74,3.88-15.38,6-23,1.9-6.71,3.89-13.46,5.91-20.17-4.4,1.61-8.59,3.15-12.2,4.79a97.54,97.54,0,0,0-10.15,5.68,75.62,75.62,0,0,0-10.77,8,43.38,43.38,0,0,0-8.1,9.45A14.82,14.82,0,0,0,256.06,264a17.66,17.66,0,0,0,2.92,6.66,26.13,26.13,0,0,0,7.41,6.86Z" transform="translate(-39.47 -69.62)"/><path class="cls-1" d="M358.17,245.12a5.19,5.19,0,0,1,4.42-.73,15.59,15.59,0,0,1,5.47,2.3,14,14,0,0,1,4.36,4.49,8,8,0,0,1,1.06,5.9c.08-.19,0,0-.12.55s-.4,1.31-.69,2.24l-1,3.23c-.38,1.22-.73,2.35-1.06,3.38-.75,2.43-1.6,5.13-2.56,8.08s-1.86,5.95-2.74,9l-2.55,8.85q-1.25,4.32-1.93,7.6c-.45,2.18-.74,3.92-.87,5.2s.06,1.86.56,1.74l.87-.21a24.53,24.53,0,0,0,6.54-5.8,55.72,55.72,0,0,0,5.35-8,91.84,91.84,0,0,0,4.42-9.08q2-4.71,3.86-9.08c.55-1.39.83-2.08,1.37-3.46.25-.59.86-.85,1.81-.79a6.66,6.66,0,0,1,2.8.84,7.84,7.84,0,0,1,2.3,1.87,1.91,1.91,0,0,1,.44,2.16l.13-.3a196.07,196.07,0,0,1-8.66,19.34,137.23,137.23,0,0,1-10.77,18l-2.37,2.73a26.37,26.37,0,0,1-3.17,3,28.91,28.91,0,0,1-3.92,2.7,15.77,15.77,0,0,1-4.49,1.78c-3.27.73-5.93,0-7.84-2.13a16.54,16.54,0,0,1-3.74-8.69c-.16-1.34-.27-2.74-.31-4.21a34.42,34.42,0,0,1,.19-4.58v.13A132.86,132.86,0,0,1,348,287.56c1.34-6,2.84-12.14,4.24-18.09.95-4,1.82-8.09,2.74-12s1.62-7.4,2.11-10.55Zm6.47-41.23a4.17,4.17,0,0,1,2.55.09,16.09,16.09,0,0,1,3.36,1.51,31,31,0,0,1,3.62,2.47,41,41,0,0,1,3.23,2.82,22.48,22.48,0,0,1,2.37,2.64,4.86,4.86,0,0,1,1.06,2,22.31,22.31,0,0,1-.94,6.84q-.81,3.06-1.68,6.26t-1.68,6.52a51,51,0,0,0-1.18,7.56,9.57,9.57,0,0,1-3.8-.93,20.38,20.38,0,0,1-4.11-2.43,20.08,20.08,0,0,1-3.36-3.19,6.94,6.94,0,0,1-1.68-3.1,33.34,33.34,0,0,1-.13-5.67c.09-2.1.17-4.33.38-6.58s.41-4.64.5-7A59,59,0,0,0,363,207Z" transform="translate(-39.47 -69.62)"/><path class="cls-1" d="M450.06,270.47q-1.38,3.7-3.74,9.09a98.55,98.55,0,0,1-5.54,10.73,57.5,57.5,0,0,1-7,9.48,16.76,16.76,0,0,1-8,5.25,14.81,14.81,0,0,1-5.3.4,10.24,10.24,0,0,1-4.85-1.78,12.28,12.28,0,0,1-3.74-4.4,20.13,20.13,0,0,1-2.05-7.31,49.39,49.39,0,0,1-.19-7.6q.19-3.81.75-8.11t1.56-9.41q1-5.13,2.36-11.58a42.12,42.12,0,0,0,.87-5.09,13.19,13.19,0,0,0,0-3.69L411,252.87q-3.85,5.55-6.85,10.8c-2,3.5-4.69,7.65-6,11.48-1.62,4.81-2,11.36-2.49,17.11a105.25,105.25,0,0,0-.12,17c0,1-.73,1.57-2.18,1.86a13.85,13.85,0,0,1-4.86,0,19,19,0,0,1-5-1.49c-1.57-.72-2.57-1.67-2.74-2.68a61.3,61.3,0,0,1-.5-11.22c.09-3.69.31-7.38.69-11.06s.85-7.35,1.43-11,1.26-7.36,1.87-11c.71-4.26,1.33-8.53,2-12.63s1.2-8,1.62-11.76a5,5,0,0,1,3.61-1,16.55,16.55,0,0,1,4.86,1,18.32,18.32,0,0,1,4.73,2.6,11.37,11.37,0,0,1,3.36,3.85,65.75,65.75,0,0,1,8.4-10.11,24.54,24.54,0,0,1,9.78-6.17,5.78,5.78,0,0,1,4,.58,15.79,15.79,0,0,1,4.18,2.88,16,16,0,0,1,3.17,4.24,7.94,7.94,0,0,1,1,4.55q-1.25,6.93-2.49,13t-2.24,10.49q-.88,3.86-1.56,7.08t-1.12,6.32a61.6,61.6,0,0,0-.56,6.23,46.51,46.51,0,0,0,.25,6.68c0-.26.2-.57.62-.94l-.13,0a48.87,48.87,0,0,0,7.1-8.44,69.72,69.72,0,0,0,7.47-14.6q1-2.32,1.81-4.47c.54-1.43,1.06-2.86,1.56-4.28.49-1.63.74-2.44,1.24-4.07.25-.5.83-.75,1.74-.76a8.18,8.18,0,0,1,2.87.53,7.6,7.6,0,0,1,2.55,1.51,1.79,1.79,0,0,1,.69,2v-.26c-1.85,5.42-2.77,8.14-4.61,13.57Z" transform="translate(-39.47 -69.62)"/><path class="cls-1" d="M504.47,250.77q-2.24,6.22-5.6,13.92A94.19,94.19,0,0,1,490.28,280a37,37,0,0,1-6.48,7,41.18,41.18,0,0,1-6.47,4.37,33,33,0,0,1-5.67,2.43q-2.55.76-4.05,1.11c-6.47,1.49-11.76.83-15.87-2.05s-6.79-7.53-8-14a45.56,45.56,0,0,1,.06-17.26c1.29-6.88,3.84-13.38,6.41-19.87a53.91,53.91,0,0,1,4.61-8.07,62.28,62.28,0,0,1,6.91-8.46,49.06,49.06,0,0,1,8.53-7,26.55,26.55,0,0,1,9.59-3.94,10.52,10.52,0,0,1,8.77,1.72,12.1,12.1,0,0,1,4.42,8.13,20.12,20.12,0,0,1,.13,5.09,18.07,18.07,0,0,1-1.37,5.53,4.92,4.92,0,0,1-2.43,2.49,3.69,3.69,0,0,1-2.8.12,4.57,4.57,0,0,1-2.3-2,5.37,5.37,0,0,1-.81-3.72,10,10,0,0,0,.37-4.23,1.3,1.3,0,0,0-.5-.87c-.25-.16-.66-.09-1.24.2a20.81,20.81,0,0,0-8.35,6.88,56.7,56.7,0,0,0-6.22,10.62,70.11,70.11,0,0,0-4.11,11.78,51.11,51.11,0,0,0-1.74,10.33c0,.67,0,1.47,0,2.33a19,19,0,0,0,.25,2.8,18.28,18.28,0,0,0,.87,3.61,14.14,14.14,0,0,0,1.55,3.14,9.64,9.64,0,0,0,2.18,2.35,4.74,4.74,0,0,0,3,.93l-.25-.07a11.22,11.22,0,0,0,5.67-1.67,28.29,28.29,0,0,0,6.29-5.06,52.57,52.57,0,0,0,6.35-8.27,81.7,81.7,0,0,0,5.85-11.29c.91-2.25,1.76-4.56,2.55-6.91s1.43-4.78,2.18-6.71a3.75,3.75,0,0,1,2.55-2.29,4.8,4.8,0,0,1,3.18.2,4.61,4.61,0,0,1,2.3,2.25,5.17,5.17,0,0,1-.06,4.09C505.44,247.79,505.12,248.79,504.47,250.77Z" transform="translate(-39.47 -69.62)"/><path class="cls-1" d="M549.67,225.85a1.74,1.74,0,0,1-.68,1.36,4.55,4.55,0,0,1-1.75.86,8.39,8.39,0,0,1-2.3.27,8.08,8.08,0,0,1-2.24-.31,33.34,33.34,0,0,1,4.11,2.41,21,21,0,0,1,3.67,3.13,14.73,14.73,0,0,1,2.49,3.64,6.8,6.8,0,0,1,.81,3.77c-.09.56-.33,1.3-.5,2s-.34,1.52-.5,2.31c-.34,1.65-.68,3.46-1,5.39s-.71,3.81-1,5.65-.5,3.56-.62,5.17a18,18,0,0,0,.06,4.08c.08.17,0,.39-.25.67l.87-.07a17.26,17.26,0,0,0,5.85-4.69,42.51,42.51,0,0,0,4.74-7.07,69.74,69.74,0,0,0,3.79-8.33q1.68-4.41,3.18-8.47a34.94,34.94,0,0,0,1.37-3.54c.16-.4.85-.56,1.8-.36a9.33,9.33,0,0,1,2.93,1.19,11.33,11.33,0,0,1,2.62,2.12c.74.82,1,1.53.74,2.14l-2,5.19v.13q-2.87,7.66-6.35,15.21a61.17,61.17,0,0,1-8.72,13.75c-.58.72-1.28,1.51-2.11,2.38a19.73,19.73,0,0,1-3,2.52,20.57,20.57,0,0,1-3.86,2.08,14.3,14.3,0,0,1-14.45-2.42,18.05,18.05,0,0,1-5-9.08,59.57,59.57,0,0,1-8.28,10.43c-3,3-6.44,5.09-9.65,5.47a16,16,0,0,1-8.4-1.38,17.79,17.79,0,0,1-5.92-4.31,20.18,20.18,0,0,1-3.67-6,29.67,29.67,0,0,1-1.81-6.33,37.24,37.24,0,0,1-.37-4.59,50.42,50.42,0,0,1,.87-10.67,85.46,85.46,0,0,1,3.24-12,78.21,78.21,0,0,1,5.35-12A68.23,68.23,0,0,1,511,216.85a40.37,40.37,0,0,1,8.77-8A23.92,23.92,0,0,1,530,205a19.41,19.41,0,0,1,3.23-.14,28.85,28.85,0,0,1,3.49.37,11.8,11.8,0,0,1,5.54,2.72,16.8,16.8,0,0,1,3.8,5,30.19,30.19,0,0,1,2.37,6.28A48.29,48.29,0,0,1,549.67,225.85Zm-14.57,1.44a3.86,3.86,0,0,1,2.8-.58,15.55,15.55,0,0,1,3.93,1,1.59,1.59,0,0,1-.88-1.34,2.7,2.7,0,0,0-.18-.89,7.21,7.21,0,0,1-.31-1,18.75,18.75,0,0,0-.75-2.65,12.33,12.33,0,0,0-1.25-2.52,5.76,5.76,0,0,0-1.8-1.81,4.49,4.49,0,0,0-2.68-.6c-3,.19-5.87,1.79-8.4,4.51a38.16,38.16,0,0,0-6.54,9.95,74.45,74.45,0,0,0-4.48,12.37,88,88,0,0,0-2.24,11.64,22.1,22.1,0,0,0-.19,3.6,34.1,34.1,0,0,0,.43,4.14,9.13,9.13,0,0,0,1.87,4.62c1,1.14,2.7,1.17,5.11.12a11.59,11.59,0,0,0,3.73-3.53,63.56,63.56,0,0,0,4.24-6.35q2.12-3.59,4-7.52a47.87,47.87,0,0,0,3.18-7.06,57.13,57.13,0,0,0,1.06-7.84,30.17,30.17,0,0,0,.18-6.31C535.63,228.47,535.45,228.08,535.1,227.29Z" transform="translate(-39.47 -69.62)"/><path class="cls-1" d="M237.68,168.81a1.44,1.44,0,0,1,.76-.09.92.92,0,0,1,.63.53l2.17,5.84a.83.83,0,0,1,.06.64.84.84,0,0,1-.52.41,7.7,7.7,0,0,0-4.15,3,7.32,7.32,0,0,0-1.27,2.93,7.51,7.51,0,0,0,.06,3.06,8.43,8.43,0,0,0,1.27,2.89,9.75,9.75,0,0,0,5.38,3.85,8.39,8.39,0,0,0,3.13.26,7.56,7.56,0,0,0,2.91-1,7.19,7.19,0,0,0,2.36-2.15,7.68,7.68,0,0,0,1.16-2.37,8,8,0,0,0,.3-2.56,1,1,0,0,1,.21-.62.88.88,0,0,1,.6-.17l6.37.2a.87.87,0,0,1,.68.42,1.33,1.33,0,0,1,.14.73,16.17,16.17,0,0,1-.73,4.63,14.79,14.79,0,0,1-2.15,4.27,15.08,15.08,0,0,1-6.46,5.19,15.9,15.9,0,0,1-4,1.11,17.36,17.36,0,0,1-4.14.08,16.64,16.64,0,0,1-4.11-1,17.34,17.34,0,0,1-7.13-5.1,16.18,16.18,0,0,1-2.28-3.58,16.68,16.68,0,0,1-1.29-4,15.26,15.26,0,0,1-.23-4.1,15.73,15.73,0,0,1,.84-4,15.46,15.46,0,0,1,5.28-7.16A15.78,15.78,0,0,1,237.68,168.81Z" transform="translate(-39.47 -69.62)"/><path class="cls-1" d="M248.35,154.58a.7.7,0,0,1-.1-.3,1,1,0,0,1,0-.39,1.37,1.37,0,0,1,.09-.4.91.91,0,0,1,.19-.3l3.66-3.83a.83.83,0,0,1,.58-.27,2.5,2.5,0,0,1,.55,0l1.24.48,28.57,12.33a.63.63,0,0,1,.46.53,1,1,0,0,1-.35.75l-4.1,4.29a1.23,1.23,0,0,1-.64.4,1.16,1.16,0,0,1-.72-.13l-2.14-.93-2.12-.95-7.6,7.93c.35.7.69,1.4,1,2.09s.68,1.39,1,2.09a1,1,0,0,1-.16,1.31l-4.22,4.41a1,1,0,0,1-.6.32c-.23,0-.4-.1-.54-.38Zm9.27,3.65c.34.7.73,1.44,1.16,2.22s.85,1.56,1.29,2.34.88,1.57,1.3,2.34.8,1.51,1.15,2.21l4.39-4.59Z" transform="translate(-39.47 -69.62)"/><path class="cls-1" d="M267.18,136.31a1.08,1.08,0,0,1-.27-.71.82.82,0,0,1,.37-.63l10.52-8.24a9.66,9.66,0,0,1,3.66-1.81,10.29,10.29,0,0,1,3.94-.23,10.51,10.51,0,0,1,6.9,4,10.35,10.35,0,0,1,1.42,2.43,10.94,10.94,0,0,1,.69,2.61,11.1,11.1,0,0,1,0,2.64,10.32,10.32,0,0,1-.64,2.53l10.62,4.93c.2.1.44.21.73.33a1.53,1.53,0,0,1,.62.42.65.65,0,0,1,.15.55.9.9,0,0,1-.35.51L300,150a1,1,0,0,1-.63.22.92.92,0,0,1-.64-.23l-10-4.65L286,147.39l6,7.65a.83.83,0,0,1-.18,1.32L287,160.14a.94.94,0,0,1-.66.23.88.88,0,0,1-.63-.39Zm18.64-2.46a3.91,3.91,0,0,0-1-.88,4.38,4.38,0,0,0-1.24-.53,3.55,3.55,0,0,0-1.34-.1,3.24,3.24,0,0,0-1.3.41l-.9.61c-.28.2-.58.41-.89.66l-2.25,1.76L281.8,142l3-2.34c.2-.16.37-.3.51-.43l.46-.44a3.2,3.2,0,0,0,.76-1.16,3.57,3.57,0,0,0,.22-1.29,4,4,0,0,0-.26-1.3A4.24,4.24,0,0,0,285.82,133.85Z" transform="translate(-39.47 -69.62)"/><path class="cls-1" d="M293.2,116.61a1.05,1.05,0,0,1-.13-.69.84.84,0,0,1,.46-.58l5.88-3.34a1.4,1.4,0,0,1,.6-.16,1.42,1.42,0,0,1,.72.18q4.47,2.55,8.83,5l8.84,5-8.51-15a1.06,1.06,0,0,1,0-.68.9.9,0,0,1,.4-.48l5.13-2.9a1,1,0,0,1,.75-.14.85.85,0,0,1,.6.46l14.89,26.27a.79.79,0,0,1,.1.67,1.08,1.08,0,0,1-.5.52L325.51,134a.68.68,0,0,1-.51.07,4.34,4.34,0,0,1-.63-.24L315,128.33l-9.37-5.45L314.77,139a1,1,0,0,1,.17.72.92.92,0,0,1-.53.57l-5.11,2.9a.83.83,0,0,1-.73.11,1.05,1.05,0,0,1-.52-.46Z" transform="translate(-39.47 -69.62)"/><path class="cls-1" d="M325.53,99.55a1.09,1.09,0,0,1,0-.71.84.84,0,0,1,.52-.52L331.6,96a1.12,1.12,0,0,1,.71,0,.81.81,0,0,1,.59.5l11.73,27.7a.87.87,0,0,1-.56,1.27l-5.6,2.37a.82.82,0,0,1-1.21-.52Z" transform="translate(-39.47 -69.62)"/><path class="cls-1" d="M364.15,87.44a1.3,1.3,0,0,1,.66.39.94.94,0,0,1,.18.8l-1.84,6a.85.85,0,0,1-.34.55.91.91,0,0,1-.66,0,7.56,7.56,0,0,0-5.09-.18,7.19,7.19,0,0,0-2.79,1.55A7.38,7.38,0,0,0,352.45,99a8.2,8.2,0,0,0-.75,3.06,9.4,9.4,0,0,0,.41,3.34,9.23,9.23,0,0,0,1.52,3,8.28,8.28,0,0,0,2.33,2.1,7.64,7.64,0,0,0,2.88,1,7.29,7.29,0,0,0,3.19-.27,7.92,7.92,0,0,0,2.36-1.18,8.05,8.05,0,0,0,1.79-1.85.94.94,0,0,1,.54-.36.85.85,0,0,1,.59.22l4.93,4a.91.91,0,0,1,.29.74,1.38,1.38,0,0,1-.34.67,16.48,16.48,0,0,1-3.39,3.23,15.47,15.47,0,0,1-8.5,2.76,15.53,15.53,0,0,1-4.09-.48,16.16,16.16,0,0,1-3.81-1.53,16.62,16.62,0,0,1-3.33-2.45,16.15,16.15,0,0,1-2.67-3.29,16.88,16.88,0,0,1-.8-16.54,15.16,15.16,0,0,1,2.31-3.39A15.82,15.82,0,0,1,351,89.14a15.33,15.33,0,0,1,8.55-2.47A16,16,0,0,1,364.15,87.44Z" transform="translate(-39.47 -69.62)"/><path class="cls-1" d="M372.42,84.27a1.06,1.06,0,0,1,.12-.76.84.84,0,0,1,.61-.37l20.26-3.28a.91.91,0,0,1,.74.16,1.19,1.19,0,0,1,.37.71l.85,5.25a1.13,1.13,0,0,1-.14.73.82.82,0,0,1-.66.45L381.34,89.3l.86,5.27,10.21-1.65a1,1,0,0,1,.67.09.75.75,0,0,1,.36.59l.74,4.59a.91.91,0,0,1-.13.61.78.78,0,0,1-.61.38l-10.23,1.66.88,5.45,13.72-2.23a.85.85,0,0,1,1.08.83l.87,5.34a.56.56,0,0,1-.1.41c0,.4-.24.65-.75.73l-20.64,3.34a.82.82,0,0,1-1-.77Z" transform="translate(-39.47 -69.62)"/><path class="cls-1" d="M403.24,79.91a1.13,1.13,0,0,1,.21-.73.87.87,0,0,1,.68-.29l13.35-.35a9.7,9.7,0,0,1,4,.72,10.34,10.34,0,0,1,3.3,2.17,10.6,10.6,0,0,1,2.27,3.26,10.41,10.41,0,0,1,.9,4,9.91,9.91,0,0,1-.3,2.8,11.44,11.44,0,0,1-1,2.51,10.88,10.88,0,0,1-1.57,2.12,10.38,10.38,0,0,1-2,1.67l5.59,10.27c.11.2.24.44.4.7a1.57,1.57,0,0,1,.24.71.64.64,0,0,1-.2.53.89.89,0,0,1-.59.2l-7.09.19a1,1,0,0,1-.63-.2,1,1,0,0,1-.38-.57L415.13,100l-3.35.09.26,9.71a.82.82,0,0,1-.93,1l-6.13.16a1,1,0,0,1-.67-.2.92.92,0,0,1-.27-.7ZM419.69,89a4.2,4.2,0,0,0-.94-2.45,3.54,3.54,0,0,0-1-.88,3.29,3.29,0,0,0-1.3-.44l-1.09,0c-.33,0-.7,0-1.1,0l-2.86.07.21,7.91,3.81-.11a6.32,6.32,0,0,0,.66,0,5.87,5.87,0,0,0,.64-.08A3.27,3.27,0,0,0,418,92.5a3.58,3.58,0,0,0,.95-.91,3.88,3.88,0,0,0,.56-1.2A4.4,4.4,0,0,0,419.69,89Z" transform="translate(-39.47 -69.62)"/><path class="cls-1" d="M434.76,79.86a1,1,0,0,1,.27-.64.84.84,0,0,1,.71-.23l6.06.46a1.09,1.09,0,0,1,.64.31.8.8,0,0,1,.3.71l-2.27,30q-.08.94-1.08.87l-6.07-.46a.83.83,0,0,1-.83-1Zm3.08-9.42a1,1,0,0,1,.47-.66,1.3,1.3,0,0,1,.69-.16l5.32.41a.69.69,0,0,1,.45.16.6.6,0,0,1,.18.34,1,1,0,0,1,0,.44,2.07,2.07,0,0,1-.18.47l-2.37,4.47a2.53,2.53,0,0,1-.54.65.9.9,0,0,1-.64.16l-4.52-.34a.46.46,0,0,1-.41-.2.72.72,0,0,1-.08-.42,2,2,0,0,1,.1-.51c.06-.18.1-.34.14-.46Z" transform="translate(-39.47 -69.62)"/><path class="cls-1" d="M460.58,82.71a.66.66,0,0,1,.19-.25,1.51,1.51,0,0,1,.32-.22,2,2,0,0,1,.39-.14,1.1,1.1,0,0,1,.36,0l5.2,1a.86.86,0,0,1,.55.33,3,3,0,0,1,.29.46l.28,1.3,5.31,30.66a.66.66,0,0,1-.19.68,1,1,0,0,1-.82.12l-5.83-1.09a1.27,1.27,0,0,1-.69-.32,1.22,1.22,0,0,1-.29-.68l-.39-2.29c-.12-.76-.24-1.53-.37-2.3l-10.79-2c-.39.68-.79,1.34-1.19,2l-1.18,2a1.06,1.06,0,0,1-1.19.59l-6-1.12a1,1,0,0,1-.6-.34.51.51,0,0,1,0-.65Zm2,9.76c-.39.67-.8,1.39-1.22,2.18s-.84,1.57-1.25,2.37-.84,1.59-1.26,2.36-.82,1.5-1.21,2.18l6.24,1.16Z" transform="translate(-39.47 -69.62)"/><path class="cls-1" d="M481.88,108.93q.24.39.6,1a12.59,12.59,0,0,0,.87,1.34,11,11,0,0,0,1.63,1.74,5.92,5.92,0,0,0,1.94,1.07,5.62,5.62,0,0,0,1.75.32,3,3,0,0,0,1.28-.27,2.37,2.37,0,0,0,.85-.72,3.59,3.59,0,0,0,.53-1,1.68,1.68,0,0,0-.09-1.28,5,5,0,0,0-.84-1.26,10.41,10.41,0,0,0-1.17-1.13c-.43-.34-.79-.63-1.11-.87a29.66,29.66,0,0,1-3.51-3.21,13.51,13.51,0,0,1-2.22-3.18,8.67,8.67,0,0,1-.88-3.26,9,9,0,0,1,.48-3.45,8.38,8.38,0,0,1,1.88-3.22,8,8,0,0,1,3-2A10.57,10.57,0,0,1,490.7,89a14.91,14.91,0,0,1,4.5.82,14,14,0,0,1,3.29,1.55,13.58,13.58,0,0,1,2.79,2.4c.35.42.68.84,1,1.27a11.77,11.77,0,0,1,.77,1.19,4.92,4.92,0,0,1,.46,1,1.17,1.17,0,0,1,.06.72,1,1,0,0,1-.29.45,3,3,0,0,1-.55.38l-4.11,2.34a1,1,0,0,1-.78.13.85.85,0,0,1-.44-.33,6.32,6.32,0,0,1-.37-.57l-.12-.22c-.19-.32-.4-.66-.64-1a8.44,8.44,0,0,0-.81-1,7.68,7.68,0,0,0-1-.88,4.32,4.32,0,0,0-1.17-.6,7.08,7.08,0,0,0-1.26-.29,3.46,3.46,0,0,0-1.12,0,2.08,2.08,0,0,0-.9.42,1.87,1.87,0,0,0-.58.88,2,2,0,0,0-.05,1.09,3,3,0,0,0,.57,1,7.71,7.71,0,0,0,1.15,1.12c.47.39,1,.83,1.66,1.31,1.24.94,2.35,1.86,3.35,2.77a13.74,13.74,0,0,1,2.42,2.86,8.19,8.19,0,0,1,1.15,3.23,8.74,8.74,0,0,1-.48,3.86,9.83,9.83,0,0,1-2.23,3.78,9.69,9.69,0,0,1-3.45,2.32,11.78,11.78,0,0,1-4.29.8,14.6,14.6,0,0,1-4.71-.77,13,13,0,0,1-4.16-2.3,18,18,0,0,1-3.32-3.6,11.24,11.24,0,0,1-.94-1.61c-.24-.5-.42-.9-.55-1.2l0-.09a.08.08,0,0,0,0-.06l0,0a.64.64,0,0,0,0-.07s0,0,0,0a1.5,1.5,0,0,1-.18-1,1.22,1.22,0,0,1,.71-.63l4.51-2.25a1.24,1.24,0,0,1,.77-.09.86.86,0,0,1,.33.24A4.41,4.41,0,0,1,481.88,108.93Z" transform="translate(-39.47 -69.62)"/><path class="cls-1" d="M519.48,124.12c.1.29.24.67.39,1.15a12.57,12.57,0,0,0,.61,1.48,10.21,10.21,0,0,0,1.26,2,6,6,0,0,0,1.7,1.41,5.54,5.54,0,0,0,1.67.65,2.81,2.81,0,0,0,1.3,0,2.31,2.31,0,0,0,1-.54,3.55,3.55,0,0,0,.7-.91,1.71,1.71,0,0,0,.16-1.28,4.84,4.84,0,0,0-.58-1.39,10.29,10.29,0,0,0-.94-1.33c-.35-.42-.66-.77-.92-1.07a29.25,29.25,0,0,1-2.84-3.81,13.19,13.19,0,0,1-1.58-3.55,8.58,8.58,0,0,1-.25-3.36,8.83,8.83,0,0,1,1.13-3.3,8.26,8.26,0,0,1,2.45-2.8,7.93,7.93,0,0,1,3.29-1.37,10.76,10.76,0,0,1,3.9.12,15,15,0,0,1,4.27,1.66,14.78,14.78,0,0,1,2.94,2.14,13.47,13.47,0,0,1,2.28,2.89c.27.48.51,1,.73,1.43s.39.92.53,1.32a6.39,6.39,0,0,1,.26,1.08,1.28,1.28,0,0,1-.08.72,1.07,1.07,0,0,1-.37.39,3.79,3.79,0,0,1-.62.27l-4.47,1.53a1,1,0,0,1-.79,0,.84.84,0,0,1-.38-.41,5.16,5.16,0,0,1-.25-.63l-.08-.24c-.12-.35-.27-.72-.44-1.11a8.88,8.88,0,0,0-.6-1.14,7.35,7.35,0,0,0-.82-1,4.28,4.28,0,0,0-1-.82,7.47,7.47,0,0,0-1.18-.52,3.47,3.47,0,0,0-1.11-.18,2,2,0,0,0-1,.24,2.07,2.07,0,0,0-1,1.81,3.12,3.12,0,0,0,.36,1.14A8.07,8.07,0,0,0,530,118c.39.47.86,1,1.39,1.6q1.55,1.73,2.76,3.36a13.6,13.6,0,0,1,1.84,3.26,8.19,8.19,0,0,1,.51,3.39,8.66,8.66,0,0,1-1.2,3.69,9.72,9.72,0,0,1-2.9,3.3,9.93,9.93,0,0,1-3.83,1.63,11.85,11.85,0,0,1-4.36,0,14.59,14.59,0,0,1-4.48-1.65,12.94,12.94,0,0,1-3.65-3.05,17.65,17.65,0,0,1-2.58-4.16,11.35,11.35,0,0,1-.62-1.76c-.13-.53-.24-1-.31-1.28l0-.09s0,0,0-.07a.08.08,0,0,1,0,0,.35.35,0,0,0,0-.06s0,0,0,0a1.53,1.53,0,0,1,0-1,1.25,1.25,0,0,1,.82-.48l4.85-1.36a1.26,1.26,0,0,1,.77.06.76.76,0,0,1,.29.3C519.31,123.68,519.39,123.88,519.48,124.12Z" transform="translate(-39.47 -69.62)"/><path class="cls-1" d="M547.71,138.76a7.55,7.55,0,0,0-1.29,2.42,5.06,5.06,0,0,0-.2,2.11,4.14,4.14,0,0,0,.67,1.8,5.74,5.74,0,0,0,1.33,1.41,5.27,5.27,0,0,0,1.79.89,4.62,4.62,0,0,0,2,.08,5.44,5.44,0,0,0,2-.81,7.42,7.42,0,0,0,1.85-1.76l11-14.57a1,1,0,0,1,.61-.38.9.9,0,0,1,.72.2L573,133.8a1,1,0,0,1,.24,1.36l-11,14.47a16.71,16.71,0,0,1-4.67,4.41,10.5,10.5,0,0,1-9.45.82,17.75,17.75,0,0,1-4.37-2.46,17.4,17.4,0,0,1-3.55-3.57,10.69,10.69,0,0,1-2-4.34,11.09,11.09,0,0,1,.21-5,16.23,16.23,0,0,1,2.93-5.63l11-14.47A1.07,1.07,0,0,1,553,119a.72.72,0,0,1,.64.12l4.94,3.74a1.1,1.1,0,0,1,.35.61.83.83,0,0,1-.14.75Z" transform="translate(-39.47 -69.62)"/><path class="cls-1" d="M568.14,158.78c0,.31,0,.71.06,1.21a11.91,11.91,0,0,0,.18,1.59,10.61,10.61,0,0,0,.66,2.29,6,6,0,0,0,1.25,1.83,5.5,5.5,0,0,0,1.42,1.07,2.78,2.78,0,0,0,1.26.34,2.39,2.39,0,0,0,1.09-.25,4,4,0,0,0,.93-.68,1.73,1.73,0,0,0,.5-1.19,5.32,5.32,0,0,0-.17-1.5,10.41,10.41,0,0,0-.54-1.54l-.6-1.27a29.56,29.56,0,0,1-1.68-4.46,13.55,13.55,0,0,1-.54-3.84,8.76,8.76,0,0,1,.68-3.3,9.07,9.07,0,0,1,2-2.86,8.29,8.29,0,0,1,3.12-2,7.86,7.86,0,0,1,3.54-.4A10.25,10.25,0,0,1,585,145a15.14,15.14,0,0,1,3.65,2.76,14.69,14.69,0,0,1,2.23,2.87,13.28,13.28,0,0,1,1.4,3.41c.13.53.23,1.06.31,1.58a13.07,13.07,0,0,1,.15,1.41,5.44,5.44,0,0,1,0,1.11,1.13,1.13,0,0,1-.28.67,1,1,0,0,1-.46.27,3.3,3.3,0,0,1-.66.1l-4.72.23a1,1,0,0,1-.76-.24.86.86,0,0,1-.25-.5c0-.19-.05-.41-.07-.67v-.26c0-.37-.06-.76-.11-1.18a9.44,9.44,0,0,0-.27-1.26,7.21,7.21,0,0,0-.5-1.23,4.11,4.11,0,0,0-.77-1.07,6.81,6.81,0,0,0-1-.83,3.57,3.57,0,0,0-1-.48,2.08,2.08,0,0,0-1,0,1.82,1.82,0,0,0-.92.53,1.87,1.87,0,0,0-.53.94,3,3,0,0,0,0,1.19,8.47,8.47,0,0,0,.51,1.52c.25.57.55,1.21.9,1.93.67,1.39,1.25,2.72,1.73,4a13.11,13.11,0,0,1,.86,3.65,8,8,0,0,1-.43,3.39,8.8,8.8,0,0,1-2.17,3.23,9.6,9.6,0,0,1-7.83,2.87,11.53,11.53,0,0,1-4.18-1.22,14.43,14.43,0,0,1-3.85-2.82,12.78,12.78,0,0,1-2.67-3.93,17.77,17.77,0,0,1-1.34-4.71,11.38,11.38,0,0,1-.11-1.86c0-.56,0-1,0-1.33v-.08s0-.06,0-.07,0,0,0,0a.26.26,0,0,0,0-.07.09.09,0,0,1,0,0,1.48,1.48,0,0,1,.28-1,1.23,1.23,0,0,1,.91-.24l5,0a1.26,1.26,0,0,1,.72.27.72.72,0,0,1,.19.37A4.12,4.12,0,0,1,568.14,158.78Z" transform="translate(-39.47 -69.62)"/><path class="cls-1" d="M588.38,171.24a17.06,17.06,0,0,1,3.85-2.15,16.34,16.34,0,0,1,4.12-1.06,16.55,16.55,0,0,1,4.16,0,15.79,15.79,0,0,1,7.55,3.1,15,15,0,0,1,3,3,14.86,14.86,0,0,1,2,3.73,15.57,15.57,0,0,1,.92,4,15.74,15.74,0,0,1-.16,4.11,16.37,16.37,0,0,1-1.22,4,18,18,0,0,1-2.23,3.63,17.11,17.11,0,0,1-7,5.21,17.71,17.71,0,0,1-4.09,1,16.38,16.38,0,0,1-4.14,0,16,16,0,0,1-4-1.05A15.32,15.32,0,0,1,581.62,186a15.65,15.65,0,0,1,.16-4.1,17.09,17.09,0,0,1,1.2-4,16.28,16.28,0,0,1,2.21-3.61A17.2,17.2,0,0,1,588.38,171.24Zm4.77,6.43a9.32,9.32,0,0,0-2.34,2.44A8.51,8.51,0,0,0,589.6,183a7.69,7.69,0,0,0,0,3.06,7.61,7.61,0,0,0,6.67,6,8.26,8.26,0,0,0,3.14-.3,9.39,9.39,0,0,0,3-1.52,9.62,9.62,0,0,0,2.33-2.44,8.33,8.33,0,0,0,1.23-2.93,7.4,7.4,0,0,0-1.34-6,7.33,7.33,0,0,0-2.4-2.13,7.89,7.89,0,0,0-2.94-.89,8.37,8.37,0,0,0-3.16.31A9.65,9.65,0,0,0,593.15,177.67Z" transform="translate(-39.47 -69.62)"/><path class="cls-1" d="M113.62,508.47c-43.1-.58-52.28-75.76-24.77-95.08,25.07-17.61,36.88,8.11,38.78,12.81a1,1,0,0,0,1.06.6l11.09-1.67a1,1,0,0,0,.81-1.25l-7.66-28.15a1,1,0,0,0-1.07-.72l-4.29.5a1,1,0,0,0-.75.52l-1.2,2.38a1,1,0,0,1-1.29.44c-8.91-4-60.32-13.25-78.51,34-26.59,69.08,35.27,119,94.35,78a1,1,0,0,0,.43-.83l0-11.64a1,1,0,0,0-1.58-.8C135,500.59,123.37,508.6,113.62,508.47Z" transform="translate(-39.47 -69.62)"/><path class="cls-1" d="M260.6,495.49c-1.41-.66-7-3.53-9.84-8.65a1.51,1.51,0,0,1-.14-.35l-28-104.18a1.39,1.39,0,0,0-1.57-1l-36.37,6.27a1,1,0,0,0-.8,1l.2,2.25a.77.77,0,0,0,.57.68c1.35.33,4.85,1.72,3.58,7.2l-26,105.66s-2,8.51-9.34,9.69a.77.77,0,0,0-.66.74v2.46a.77.77,0,0,0,.87.76l28.17-4a1.4,1.4,0,0,0,1.2-1.38v-2.08a1.41,1.41,0,0,0-.85-1.28c-1.5-.69-4.33-2.73-3.12-8.12l5.18-21.84a3.21,3.21,0,0,1,2.91-2.11l26.64-4.37s1.57-.28,1.88,1.88l5.07,18.41s1.52,4.8-3.3,10.15a1.37,1.37,0,0,0-.35,1.14l.41,2.52c.11.66.51.93.92.84l43-8.84a.76.76,0,0,0,.59-.92L261,496A.75.75,0,0,0,260.6,495.49ZM211,460.67,188,465a.51.51,0,0,1-.59-.63l11.51-47.39a.51.51,0,0,1,1,0L211.42,460A.52.52,0,0,1,211,460.67Z" transform="translate(-39.47 -69.62)"/><path class="cls-1" d="M580.73,418.11c-1.41-.66-8.14-2.41-10.45-8.44,0-.12-.11-.23-.14-.35L542,305a1.37,1.37,0,0,0-1.57-1l-36.72,9.33a1,1,0,0,0-.8,1l.2,2.24a.77.77,0,0,0,.56.68c1.36.33,5.14,2.16,3.88,7.64L482.41,430.19a18.08,18.08,0,0,1-10.9,12.64c-.35.13-.66.36-.66.74V446a.76.76,0,0,0,.87.76L500.84,441a1.38,1.38,0,0,0,1.19-1.37v-2.08a1.41,1.41,0,0,0-.85-1.28c-1.49-.69-4.84-2.86-3.63-8.25l5.24-22.78a3.21,3.21,0,0,1,2.91-2.11l27.65-6.7s1.56-.28,1.88,1.88l4.54,18.93s.34,4.86-4.48,10.21a1.38,1.38,0,0,0-.36,1.14l.42,2.52c.11.66.51.93.91.84L581,421.62a.77.77,0,0,0,.59-.92l-.48-2.08A.75.75,0,0,0,580.73,418.11Zm-50.21-33.26-23.3,5.64a.52.52,0,0,1-.6-.63l11.66-48.57a.51.51,0,0,1,1,0l11.65,42.93A.51.51,0,0,1,530.52,384.85Z" transform="translate(-39.47 -69.62)"/><path class="cls-1" d="M374.1,384.34c0-38.27-36.9-28.61-36.9-28.61l-61.83,14.43a.35.35,0,0,0-.27.34v2.71a.34.34,0,0,0,.29.34c1.48.25,8.13,2.75,7.83,9.26v96.43s-.31,10.46-7.86,12.37a.34.34,0,0,0-.26.32V496a.35.35,0,0,0,.42.34L321.81,486a.35.35,0,0,0,.27-.34v-3a.34.34,0,0,0-.28-.34,10.74,10.74,0,0,1-8.3-7,.59.59,0,0,1,0-.14v-29.6a.32.32,0,0,1,.22-.32C317.69,443.93,374.1,424.42,374.1,384.34Zm-40.42-14.95C348.5,365,348.16,386,347.92,389c-2.37,28.81-29.6,37.77-33.35,38.87a.34.34,0,0,1-.43-.34l-.24-53a.35.35,0,0,1,.27-.34Z" transform="translate(-39.47 -69.62)"/><path class="cls-1" d="M394.17,356.26v97.58a.09.09,0,0,1,0,.05c-.08.47-1.78,9.43-8.24,10.73a.4.4,0,0,0-.32.38v3.83a.41.41,0,0,0,.5.39L457,451.46a.42.42,0,0,0,.3-.29l6.55-26.06a.4.4,0,0,0-.51-.48l-6,1.82a.4.4,0,0,0-.28.35c-.08,1.48-1,8.6-12.19,11.35L425,443a.41.41,0,0,1-.5-.39V404.14a.42.42,0,0,1,.31-.4l8.57-2.05c6.41-1.62,15.05,2.92,16.41,4.69a1.48,1.48,0,0,0,1.65.48l1.43-.49a1.45,1.45,0,0,0,1-1.06l-.25-29.55a.4.4,0,0,0-.54-.47l-2.39.7a2.64,2.64,0,0,0-1.42,1.29c-.72,1.57-3.28,5.63-10.67,7.2l-13.58,3a.4.4,0,0,1-.49-.39V350.35a.41.41,0,0,1,.31-.39l22.46-5.6h0c.22,0,6.41-.92,9.67,4.44a.4.4,0,0,0,.41.19l4.89-.91a.41.41,0,0,0,.31-.5l-5.73-21.92a.41.41,0,0,0-.49-.29L385.1,343.56a.42.42,0,0,0-.3.48l.73,3.15a.4.4,0,0,0,.35.31C387.41,347.63,394.61,348.64,394.17,356.26Z" transform="translate(-39.47 -69.62)"/><path class="cls-1" d="M602.72,305.89v98.66a.34.34,0,0,1,0,.1c-.2.63-2.75,8.41-8,10.09a.38.38,0,0,0-.26.35v3.54a.39.39,0,0,0,.46.38l31.2-6.28a.38.38,0,0,0,.3-.43l-.41-2.66a.37.37,0,0,0-.32-.32c-1.35-.18-7.27-1.38-7.22-8.32V326.35a.38.38,0,0,1,.74-.14l23.51,62.61s10.33,25.81,50.64,14.32a.39.39,0,0,0,.29-.37v-2.69a.4.4,0,0,0-.26-.36c-1.54-.54-9.45-3.88-8.11-15.36V290.41c0-.23.79-8,8.09-10.1a.37.37,0,0,0,.28-.35v-3.28a.39.39,0,0,0-.44-.38l-31,4.32a.38.38,0,0,0-.33.41l.28,3.15a.37.37,0,0,0,.28.33c1.24.32,6.48,2,7,7.61l.08,77.34a.38.38,0,0,1-.74.13L637,285.09a.37.37,0,0,0-.42-.25l-41.82,8a.38.38,0,0,0-.31.37v2.63a.38.38,0,0,0,.32.37C596.35,296.36,603,297.71,602.72,305.89Z" transform="translate(-39.47 -69.62)"/><path class="cls-1" d="M775.14,272.84S747.89,261,726,275.32s-20,34.25-20,34.25-2.19,25.57,27.29,34,42.78,13.76,37.44,29.54S730.2,391,717.08,353.08a.41.41,0,0,0-.38-.27h-5.27a.4.4,0,0,0-.4.4V399.4a.41.41,0,0,0,.4.41h2.93a.41.41,0,0,0,.38-.28c.47-1.42,3-7.74,10.18-6.53,8.1,1.35,17,9.21,40.49,4.26s36-19.5,36-40.85c0-18.73-11.44-36.44-45.5-43.13-31.38-6.16-25.2-30.47-4.53-31.07,19.9-.58,29.65,15.38,30.25,18.52a.4.4,0,0,0,.4.3h11.79a.4.4,0,0,0,.4-.5l-7.87-31.24a.41.41,0,0,0-.4-.3l-6,.12a.4.4,0,0,0-.4.37C779.46,270.48,778.92,273.19,775.14,272.84Z" transform="translate(-39.47 -69.62)"/><path class="cls-1" d="M711.92,424.84a1.62,1.62,0,0,1,.64.66,1,1,0,0,1-.08,1l-4.31,6.12a1,1,0,0,1-.6.5,1.11,1.11,0,0,1-.77-.22,9.71,9.71,0,0,0-2.76-1.45,9.81,9.81,0,0,0-3.18-.51,9.25,9.25,0,0,0-6.89,3,10.15,10.15,0,0,0-2,3.21,11.18,11.18,0,0,0,0,7.84,10,10,0,0,0,2,3.19,9.33,9.33,0,0,0,6.89,2.94,9.82,9.82,0,0,0,3.21-.52,10,10,0,0,0,2.78-1.47,1.15,1.15,0,0,1,.76-.22,1,1,0,0,1,.62.45l4.35,6.28a1,1,0,0,1,.08.94,1.58,1.58,0,0,1-.64.64,20,20,0,0,1-5.16,2.48,19,19,0,0,1-5.83.88,19.75,19.75,0,0,1-5.19-.68,19.5,19.5,0,0,1-8.59-5,19.94,19.94,0,0,1-3-3.92,19.66,19.66,0,0,1-2-15,19.65,19.65,0,0,1,2-4.67,19.9,19.9,0,0,1,3-4,19.07,19.07,0,0,1,3.94-3.05,19.92,19.92,0,0,1,4.65-2,19,19,0,0,1,5.19-.7,19.15,19.15,0,0,1,5.78.85A19.9,19.9,0,0,1,711.92,424.84Z" transform="translate(-39.47 -69.62)"/><path class="cls-1" d="M715,441.06a19.48,19.48,0,0,1,2.65-9.86,19.9,19.9,0,0,1,3-4,19.07,19.07,0,0,1,3.94-3.05,19.81,19.81,0,0,1,4.66-2,19.55,19.55,0,0,1,10.37,0,19.71,19.71,0,0,1,4.67,2,19.28,19.28,0,0,1,7,7,20.09,20.09,0,0,1,2,4.67,19.59,19.59,0,0,1,0,10.38,19.69,19.69,0,0,1-2,4.64,19.17,19.17,0,0,1-3,3.92,19.54,19.54,0,0,1-4,3.05,19.33,19.33,0,0,1-4.67,2,20.11,20.11,0,0,1-10.37,0,19.46,19.46,0,0,1-8.6-5,19.94,19.94,0,0,1-3-3.92,18.87,18.87,0,0,1-2-4.64A19.35,19.35,0,0,1,715,441.06Zm9.87,0a10.7,10.7,0,0,0,.71,4,9.62,9.62,0,0,0,2,3.21,9.58,9.58,0,0,0,13.85,0,9.79,9.79,0,0,0,2-3.21,11.31,11.31,0,0,0,0-7.89,9.94,9.94,0,0,0-2-3.22,9.29,9.29,0,0,0-6.94-3,9.27,9.27,0,0,0-3.87.79,9.44,9.44,0,0,0-3,2.17,9.77,9.77,0,0,0-2,3.22A10.8,10.8,0,0,0,724.83,441Z" transform="translate(-39.47 -69.62)"/><path class="cls-1" d="M762.31,423.21a1.29,1.29,0,0,1,.36-.79,1.11,1.11,0,0,1,.86-.33h8.83a1.19,1.19,0,0,1,1.22,1l6.94,16.35,7-16.35a1.3,1.3,0,0,1,1.3-1h8.72a1.24,1.24,0,0,1,.83.31,1.19,1.19,0,0,1,.42.81q.9,9,1.83,17.81t1.82,17.81V459c0,.66-.37,1-1.12,1h-7.22a1.06,1.06,0,0,1-1.22-1.12l-2.22-19.71-5.74,13a1.43,1.43,0,0,1-.37.61.87.87,0,0,1-.62.36H777.2a1,1,0,0,1-.65-.35,1.09,1.09,0,0,1-.37-.62l-5.74-13-2.22,19.66c0,.75-.45,1.12-1.25,1.12h-7.21a1,1,0,0,1-1.1-1.12Z" transform="translate(-39.47 -69.62)"/><circle class="cls-1" cx="631.96" cy="386.1" r="5.24"/></svg>