<svg xmlns="http://www.w3.org/2000/svg" viewBox="0 0 402.96 98.55"><defs><style>.cls-1{fill:#ab8b41;}</style></defs><g id="Capa_2" data-name="Capa 2"><g id="svg8"><g id="layer1"><path id="path24" class="cls-1" d="M105,98.39c-8.33-.67-14.83-3.88-21.63-10.7-1.75-1.76-6.35-7.26-13.32-16-5.86-7.3-10.92-13.63-11.24-14.08l-.59-.81,4.07-4c2.24-2.21,8.74-8.58,14.44-14.16C87.41,28.22,89,26.39,89,24.83a1.55,1.55,0,0,0-1.67-1.55c-1.26,0-1.69-.26-1.69-1V21.6H96.11c10.07,0,10.44,0,10.68.46.43.81.29.91-1.57,1.06a25,25,0,0,0-3.3.53A29,29,0,0,0,93.53,28c-2.74,2.06-24,22.61-23.77,23,.66,1.13,21.79,27.65,25.18,31.6a95.38,95.38,0,0,0,9.91,10,19,19,0,0,0,6,3.13c2.14.35,2,.25,1.94,1.63l-.07,1.25-2.64,0c-1.45,0-3.72-.06-5-.16Zm33.4-.23c-2.09-.63-3.58-3-3.61-5.84a7.11,7.11,0,0,1,1.34-4.82,4.88,4.88,0,0,1,7.2-.47,7.85,7.85,0,0,1,1.39,2.86,7.17,7.17,0,0,1-2.63.48.83.83,0,0,1-.25-.64A2.15,2.15,0,0,0,140,88.08c-1.56,0-2.46,1.43-2.45,3.89,0,2.06.62,3.4,1.73,3.77a2.08,2.08,0,0,0,1.45,0,2.75,2.75,0,0,0,1.37-2c0-.46.13-.46,1.52,0,.61.21,1.12.51,1.11.66a6.47,6.47,0,0,1-1.46,2.73,5.18,5.18,0,0,1-4.85,1Zm14.29,0a5.67,5.67,0,0,1-3.05-3.34,11.1,11.1,0,0,1,.22-6.24,4.84,4.84,0,0,1,4.46-2.88A4.25,4.25,0,0,1,158,87.34a6.94,6.94,0,0,1,1.48,5c0,3.34-1.92,5.73-4.66,5.94a7,7,0,0,1-2.1-.14Zm2.57-2.49c.89-.46,1.46-1.92,1.46-3.74,0-2.37-.92-3.83-2.42-3.83S151.74,90,152,92.58c.17,1.8.6,2.69,1.49,3.08s1,.41,1.79,0Zm27.06,2.41a4.18,4.18,0,0,1-2.43-2.19c-.57-1.21-.48-1.43.84-1.85l1.21-.38.37.92a2,2,0,0,0,2.56,1.28c.7-.2.77-.31.77-1.17v-1l-1.86-.63c-2.34-.8-3-1.24-3.44-2.26a3.58,3.58,0,0,1,1.58-4.71,5.7,5.7,0,0,1,4.24-.05,4.3,4.3,0,0,1,2.14,2.64c.13.67.08.74-.81,1-1.4.43-1.6.37-1.94-.55a1.53,1.53,0,0,0-2.16-.93,1.06,1.06,0,0,0-.52,1.64,6.3,6.3,0,0,0,1.88.82,13.35,13.35,0,0,1,2.4,1c2.11,1.3,1.82,4.95-.49,6.15a6.78,6.78,0,0,1-4.34.23Zm14.4,0c-2.38-.88-2.84-2.23-2.75-8.08L194,85.8l1.26-.07,1.26-.08v4c0,4.76.19,5.68,1.22,6a2.47,2.47,0,0,0,2.43-.4c.22-.25.35-1.74.43-5l.12-4.58h2.4v9.63l-.66,1a4.77,4.77,0,0,1-1.42,1.39,6.78,6.78,0,0,1-4.36.24Zm65.76,0A4.12,4.12,0,0,1,260,95.88c-1.5-2.56-1-7.12.89-8.93a5.53,5.53,0,0,1,5.16-1,5.28,5.28,0,0,1,2.83,3.29c.17.58-.13.78-1.7,1.12-.68.15-.77.1-.92-.51a2.08,2.08,0,0,0-3.05-1.49c-1.29.69-1.83,4.17-.94,6.13.75,1.66,2.88,2,3.57.48s.62-1.35-.92-1.35h-1.43V91.2H269v7h-1.2c-.66,0-1.2-.1-1.2-.23s-.37-.07-.83.12a4.45,4.45,0,0,1-3.33,0Zm23.1.12a4.56,4.56,0,0,1-3-3.08c-.14-.45,0-.59.63-.87,1.73-.7,1.82-.7,2,.09a2,2,0,0,0,2.24,1.6c1-.16,1.48-.55,1.48-1.23s-.36-1-2.42-1.69-2.75-1.27-3.25-2.44c-1-2.45.81-4.87,3.72-4.87a4.08,4.08,0,0,1,4.22,2.71l.38.9-.67.25c-1.62.62-1.89.57-2.37-.42a1.58,1.58,0,0,0-2.14-.94,1,1,0,0,0-.62,1.52,4.67,4.67,0,0,0,2,1,13.8,13.8,0,0,1,2.31.91,3.72,3.72,0,0,1,.95,4.9,5.11,5.11,0,0,1-5.48,1.67Zm65,0a5.22,5.22,0,0,1-2.94-2.77c-1.22-2.51-.79-6.39.93-8.23a5.37,5.37,0,0,1,5.37-1.22,5,5,0,0,1,2.8,3.38c.15.6.09.65-1.09.93-.7.17-1.28.21-1.32.09-.88-2.63-3-3-4.09-.83s-.45,5.69,1.24,6.24a2,2,0,0,0,2.68-1.58c.09-.45.23-.81.32-.81a5.31,5.31,0,0,1,2.41,1,6.47,6.47,0,0,1-1.46,2.73A5.18,5.18,0,0,1,350.56,98.16Zm26.6-.2a4.2,4.2,0,0,1-2.52-3.25c0-.32,2.34-1.17,2.49-.91a6,6,0,0,1,.24.83,2.13,2.13,0,0,0,2.6,1.22c.72-.21.79-.31.79-1.18v-1l-1.8-.61a21.79,21.79,0,0,1-2.35-.92c-1.47-.81-2-3.33-.95-4.85.83-1.24,1.92-1.7,3.79-1.61a3.69,3.69,0,0,1,3.6,2.12c.66,1.3.6,1.56-.46,1.87-1.34.4-1.64.35-1.8-.3a1.62,1.62,0,0,0-1.68-1.34c-.9,0-1.35.36-1.35,1.1s.4,1,1.95,1.45c2.21.66,3.08,1.22,3.58,2.32a3.17,3.17,0,0,1,0,3.19c-.6,1.34-1.81,2-3.69,2.18a4.28,4.28,0,0,1-2.45-.36ZM165,97.86c-.07-.17-.09-3-.05-6.18L165,85.8l1.5-.07,1.49-.07,1.75,3.5,1.74,3.5.12-3.43.12-3.43h2.4l.06,6.18.07,6.18h-2.78l-2-3.9-2-3.9,0,3.9v3.9h-1.21c-.75,0-1.25-.11-1.32-.3ZM209.34,92l.06-6.19h2.4l.06,5,.07,5h5.54l-.08,1.14L217.32,98l-4,.07-4,.06Zm15.06,1.25V88.32H221V85.67l4.62.06,4.62.07.07,1.26.08,1.26H227v9.84H224.4Zm11.15,4.63c-.06-.18-.09-3-.05-6.19l.06-5.88h2.64V98l-1.26.07c-.88,0-1.3,0-1.39-.24ZM244.38,92l.06-6.18h2.88l1.8,3.47,1.8,3.47.12-3.47.12-3.47h2.4l.06,6.18.07,6.18H250.8l-1.91-3.78L247,90.6l0,3.78v3.78h-2.65l.07-6.18Zm52.74-.07V85.67l4,.06,4,.07.07,1.26.08,1.26h-5.55v2.16h4.08v2.4h-4.08v2.88h5.52v2.4h-8.16Zm13.5.07.06-6.18,2.88,0c3.33,0,4.41.36,5.15,1.59a3.86,3.86,0,0,1,.49,2.08,2.31,2.31,0,0,1-.95,2.24l-.95,1,1.31,2.62c.72,1.44,1.31,2.67,1.31,2.74a4.67,4.67,0,0,1-1.44.12H317l-1.18-2.52c-1.12-2.4-1.22-2.52-1.91-2.52h-.74v5h-2.65Zm5.22-1.57a1.34,1.34,0,0,0,.68-.85c.13-.92-.36-1.24-1.91-1.24H313.2v2.4h1a4.32,4.32,0,0,0,1.62-.31Zm10.94,5.78c-.34-1.09-1.2-3.83-1.91-6.07a35.62,35.62,0,0,1-1.19-4.26,3.91,3.91,0,0,1,2.63.11c.1.16.69,2,1.31,4.14s1.19,3.69,1.27,3.49.58-1.87,1.13-3.72,1.1-3.55,1.22-3.78c.27-.51,2.6-.62,2.6-.12,0,.17-.85,3-1.89,6.18L330.08,98l-1.34.07-1.34.07Zm12,1.68c-.06-.18-.09-3-.05-6.19l.06-5.88h2.64V98l-1.26.07c-.88,0-1.3,0-1.39-.24ZM362,92,362,85.8h8.16v2.4l-2.82.07-2.82.07v2.14h4.32v2.4h-4.32v2.88h5.76v2.4h-8.41ZM41.2,97.74c-.06-.1-7-15.08-15.4-33.3S10.15,30.62,9.7,29.76C7.54,25.63,5,23.69,1.14,23.16.07,23,0,23,0,22.31V21.6H31.68v1.61l-2.24.12c-3,.16-4.7.9-5.42,2.32a5,5,0,0,0-.17,3.89c.31,1,22.41,51.22,25.26,57.39l1.41,3,.06-30.16c.05-20.9,0-30.56-.19-31.43a6.33,6.33,0,0,0-3-4.19c-1.17-.63-1.56-.73-4.14-1C42.06,23,42,23,42,22.3v-.7H63.6v.72c0,.41-.13.72-.3.73a15.19,15.19,0,0,0-4.91,1A5.17,5.17,0,0,0,55.63,27l-.55,1.2L55,63.06,55,97.92H48.13a68.86,68.86,0,0,1-6.93-.18ZM128,50.34l-7.41-23.1-2.58-3.12L115.46,21l12.63-.06c6.94,0,12.67,0,12.73,0a23.68,23.68,0,0,1-2,3.12l-2.08,3,3.75,11.71c2.06,6.43,3.86,12.07,4,12.51.24.77.5.06,4.18-11.52,2.16-6.78,3.93-12.45,3.93-12.59a25.61,25.61,0,0,0-2-3.21,25.86,25.86,0,0,1-2-3c.05,0,4.37-.07,9.6,0l9.51.06L165,24.06c-2.69,3-2.75,3.1-3.43,5.28-.38,1.22-3.64,11.64-7.26,23.16l-6.57,20.94h-12.3Zm44.57,22.32c.33-.43,1.37-1.83,2.31-3.1l1.72-2.33V27.11l-2.26-3.05L172.13,21l12.13-.06c6.67,0,12.18,0,12.24,0a26.49,26.49,0,0,1-2.08,3.1l-2.18,3V67.27l2.16,2.94c1.19,1.62,2.16,3,2.16,3.09s-5.52.14-12.27.14H172Zm32.59.67c0-.07,1-1.44,2.16-3l2.16-2.93V26.86L207.36,24c-1.19-1.57-2.16-2.92-2.16-3s5.63-.13,12.51-.13c14.07,0,15.76.13,20.13,1.59A21.17,21.17,0,0,1,245,26.25c7.05,5.7,8.07,16.37,2.18,22.79-3.46,3.78-8,5.92-14,6.67a32.42,32.42,0,0,1-7.63-.18l-.9-.15v11.9l1.72,2.3,2.31,3.08.59.78h-12c-6.62,0-12,0-12-.11ZM229,48.49a10.24,10.24,0,0,0,5.85-6.34,15.7,15.7,0,0,0,0-6.65,11,11,0,0,0-5.3-6.54c-1.24-.63-4-1.24-4.55-1-.27.1-.33,1.87-.33,10.53,0,5.73.08,10.49.18,10.59.27.28,2.87-.08,4.17-.57Zm27.27,24.65L258.57,70l2.07-2.82V27.12l-2.07-2.82-2.31-3.12c-.19-.24,2.16-.3,11.57-.3h11.81l-1.08,1.5c-.6.83-1.59,2.21-2.19,3.07L275.27,27l.07,6.64.06,6.64,6.18-7.56,6.17-7.56-1.1-2a9.91,9.91,0,0,1-1-2.15c.07-.07,4.69-.09,10.29,0l10.18.06-3.5,2.52L299.13,26l-4.79,6.19c-2.63,3.4-4.81,6.27-4.84,6.37s2.86,6.6,6.43,14.45l6.49,14.27,3.17,3.05,3.17,3H283.14l.35-.54a59,59,0,0,0,3.31-5.65c0-.23-7.36-16.61-7.55-16.8a26.07,26.07,0,0,0-2,2.58l-2,2.65V67.44l1.63,2.22,2.18,3,.54.78h-11.8c-9.41,0-11.76-.06-11.57-.3Zm57.55-.36c.24-.36,1.22-1.71,2.19-3l1.76-2.33V26.88l-2.17-2.94L313.43,21l19.84-.06c10.92,0,19.89,0,19.93,0s.06,3.53,0,7.73l-.06,7.65-2.74-3.05-2.74-3.05h-14.8v12h8.59L344,41.16a26.57,26.57,0,0,1,2.79-1.08c.17,0,.25,2.06.25,6.48a57,57,0,0,1-.19,6.48c-.11,0-1.45-.54-3-1.2l-2.78-1.2h-8.21V64.08h14.76L350.39,61c1.51-1.71,2.78-3.11,2.82-3.11s.07,3.51.07,7.8v7.8H313.39Zm49,.36c.11-.16,1.14-1.58,2.3-3.13l2.11-2.84v-40l-2.28-3.07L362.64,21l6-.06c3.3,0,8.71,0,12,0l6,.06-2.29,3.05-2.3,3.06v37H395.9l2.51-3.29c1.38-1.81,3-3.88,3.53-4.6l1-1.31V73.44H382.79c-16.08,0-20.14-.06-20-.3ZM20.88,15V12.48h.6c.57,0,.6-.06.6-1.44V9.6H25.2v1.32c0,1,.08,1.32.36,1.32s.36-.21.36-.48.16-.48.6-.48.6,0,.6-1.68V7.92h1.05c.85,0,1.08-.09,1.18-.48a.68.68,0,0,1,1.3,0c.09.36.33.48.91.48s.82-.12.91-.48A.63.63,0,0,1,33.1,7c.48,0,.5.11.5,3.12V13.2h1.19l.06-3.78.07-3.78.78-.08c.59,0,.78-.19.78-.54A.42.42,0,0,1,37,4.56c.36,0,.48-.2.54-.9s.17-.9.55-.9.5.18.55.9.18.9.54.9A.42.42,0,0,1,39.6,5c0,.37.16.48.72.48H41V13h.59c.59,0,.59,0,.66-2.7l.07-2.7h4.08l.07,2.22a5.62,5.62,0,0,0,.3,2.22C47,12,47,10.12,47,7.2s.09-4.8.24-4.8.24-.21.24-.46A.71.71,0,0,1,48,1.32c.26-.08.48-.31.48-.5a.35.35,0,0,1,.36-.34c.2,0,.36-.11.36-.24s.22-.24.48-.24.48.11.48.24.16.24.36.24a.35.35,0,0,1,.36.34c0,.19.22.42.48.5s.48.31.48.5a.35.35,0,0,0,.36.34c.31,0,.36.61.36,4.06,0,4,0,4.07.54,4.14s.55.25.61,1.22c.12,1.75.5,1.35.58-.6l.07-1.74.9-.07.9-.08V6.23c0-1.75.09-2.87.24-2.87s.24-.16.24-.36.35-.36,1.69-.36,1.72.09,1.82.36a.57.57,0,0,0,.48.36c.26,0,.33.6.33,3v3h.6c.58,0,.6.05.6,1.68,0,2.86.46,1.88.53-1.14.06-2.6.11-2.82.55-2.9a1.07,1.07,0,0,0,.67-.43c.13-.22.66-.33,1.62-.33H67V8.52c0,1.87.07,2.28.36,2.28s.36-.51.36-3.13V4.54L70,4.61l2.34.07L72.43,7c.07,2.48.53,3.31.53,1,0-1.26.06-1.41.65-1.68.78-.36,1.27-.39,1.27-.06,0,.13.27.24.6.24s.6-.14.6-.36a.36.36,0,0,1,.72,0,.36.36,0,0,0,.36.36c.3,0,.36.55.36,3.48v3.48h2.16V9.84h.72q.72,0,.72-.36c0-.2.21-.36.48-.36s.48.16.48.36.23.36.6.36c.56,0,.6.08.6,1.18s.06,1.2.54,1.26.56.27.62.74c.1.93.76.87.76-.07,0-.73,0-.74,1.14-.66s1.14.08,1.21,1,.16.9.66.9.59.06.59,1.68v1.68H20.88Z"/></g></g></g></svg>
