<?xml version="1.0" encoding="UTF-8"?>
<svg id="Capa_1" data-name="Capa 1" xmlns="http://www.w3.org/2000/svg" xmlns:xlink="http://www.w3.org/1999/xlink" viewBox="0 0 1668.98 296.11">
  <defs>
    <style>
      .cls-1 {
        fill: url(#Degradado_sin_nombre_17);
      }

      .cls-1, .cls-2 {
        stroke-width: 7.65px;
      }

      .cls-1, .cls-2, .cls-3, .cls-4, .cls-5 {
        stroke: #fff;
        stroke-miterlimit: 10;
      }

      .cls-2 {
        fill: url(#Degradado_sin_nombre_21);
      }

      .cls-3 {
        fill: url(#Degradado_sin_nombre_14-2);
      }

      .cls-3, .cls-4, .cls-5 {
        stroke-width: 8.93px;
      }

      .cls-4 {
        fill: url(#Degradado_sin_nombre_20);
      }

      .cls-5 {
        fill: url(#Degradado_sin_nombre_14);
      }
    </style>
    <radialGradient id="Degradado_sin_nombre_20" data-name="Degradado sin nombre 20" cx="615.81" cy="148.05" fx="615.81" fy="148.05" r="104.88" gradientUnits="userSpaceOnUse">
      <stop offset="0" stop-color="#0cebeb"/>
      <stop offset=".56" stop-color="#20e3b2"/>
      <stop offset="1" stop-color="#29ffc6"/>
    </radialGradient>
    <linearGradient id="Degradado_sin_nombre_17" data-name="Degradado sin nombre 17" x1="615.81" y1="95.6" x2="720.71" y2="95.6" gradientUnits="userSpaceOnUse">
      <stop offset="0" stop-color="#0cebeb"/>
      <stop offset=".55" stop-color="#20e3b2"/>
      <stop offset="1" stop-color="#29ffc6"/>
    </linearGradient>
    <linearGradient id="Degradado_sin_nombre_14" data-name="Degradado sin nombre 14" x1="442.62" y1="148.05" x2="830.67" y2="148.05" gradientUnits="userSpaceOnUse">
      <stop offset=".11" stop-color="#0cebeb"/>
      <stop offset=".19" stop-color="#0fe9df"/>
      <stop offset=".53" stop-color="#20e3b2"/>
      <stop offset=".74" stop-color="#24f1bc"/>
      <stop offset="1" stop-color="#29ffc6"/>
    </linearGradient>
    <linearGradient id="Degradado_sin_nombre_21" data-name="Degradado sin nombre 21" x1="510.91" y1="95.6" x2="615.81" y2="95.6" gradientUnits="userSpaceOnUse">
      <stop offset="0" stop-color="#0cebeb"/>
      <stop offset=".58" stop-color="#20e3b2"/>
      <stop offset="1" stop-color="#29ffc6"/>
    </linearGradient>
    <linearGradient id="Degradado_sin_nombre_14-2" data-name="Degradado sin nombre 14" x1="510.91" y1="175.07" x2="720.71" y2="175.07" xlink:href="#Degradado_sin_nombre_14"/>
  </defs>
  <g>
    <path class="cls-4" d="M652.74,132.75c-.19-7.06-.52-13.96-.97-20.67-4.13-61.9-18.67-107.62-35.97-107.62s-31.84,45.73-35.97,107.62c-.45,6.71-.77,13.61-.97,20.67-.14,5.03-.21,10.13-.21,15.3,0,12.42,.41,24.47,1.18,35.97,.96,14.36,2.48,27.85,4.46,40.1,6.56,40.55,18.22,67.52,31.51,67.52s24.94-26.97,31.51-67.52c1.98-12.25,3.5-25.74,4.46-40.1,.77-11.49,1.18-23.55,1.18-35.97,0-5.17-.07-10.27-.21-15.3Zm-36.94-9.65c13.78,0,24.95,11.17,24.95,24.95s-11.17,24.95-24.95,24.95-24.95-11.17-24.95-24.95,11.17-24.95,24.95-24.95Z"/>
    <path class="cls-1" d="M666.68,148.05c-7.58-8.67-15.82-17.48-24.6-26.26-8.78-8.78-17.59-17.02-26.26-24.6,46.69-40.85,89.3-62.9,101.53-50.66,12.23,12.23-9.82,54.85-50.67,101.53Z"/>
    <path class="cls-5" d="M651.78,112.09c-6.71-.45-13.61-.77-20.67-.97-5.03-.14-10.13-.21-15.3-.21s-10.27,.07-15.3,.21c-7.06,.19-13.96,.52-20.67,.97-61.89,4.13-107.62,18.67-107.62,35.97,0,13.29,26.97,24.94,67.52,31.51,12.25,1.98,25.74,3.5,40.1,4.46,11.49,.77,23.55,1.18,35.97,1.18s24.47-.41,35.97-1.18c14.36-.96,27.85-2.48,40.1-4.46,40.55-6.56,67.52-18.22,67.52-31.51,0-17.3-45.73-31.84-107.62-35.97Zm-35.97,60.91c-13.78,0-24.95-11.17-24.95-24.95s11.17-24.95,24.95-24.95,24.95,11.17,24.95,24.95-11.17,24.95-24.95,24.95Z"/>
    <path class="cls-2" d="M615.81,97.18c-8.67,7.59-17.48,15.82-26.26,24.6-8.78,8.78-17.02,17.59-24.6,26.26-40.85-46.69-62.9-89.3-50.67-101.53,12.23-12.23,54.85,9.82,101.53,50.66Z"/>
    <path class="cls-3" d="M691.87,179.56c-7.26-10.06-15.72-20.68-25.2-31.51-4.43-5.06-9.08-10.17-13.93-15.3-3.46-3.65-7.02-7.31-10.67-10.97-3.65-3.65-7.31-7.21-10.97-10.67-5.13-4.85-10.24-9.5-15.3-13.93-5.06,4.43-10.17,9.08-15.3,13.93-3.65,3.46-7.31,7.02-10.97,10.67-3.65,3.65-7.21,7.31-10.67,10.97-4.85,5.13-9.5,10.24-13.93,15.3-9.48,10.83-17.94,21.44-25.2,31.51-24.04,33.32-34.86,60.63-25.47,70.02,9.4,9.4,36.71-1.43,70.02-25.47,10.06-7.26,20.68-15.72,31.51-25.2,10.83,9.48,21.44,17.94,31.51,25.2,33.32,24.04,60.63,34.86,70.02,25.47,9.4-9.4-1.43-36.71-25.47-70.02Zm-75.84-20.16c-6.07,0-10.99-4.92-10.99-10.99s4.92-10.99,10.99-10.99,10.99,4.92,10.99,10.99-4.92,10.99-10.99,10.99Z"/>
  </g>
  <g>
    <path d="M250.2,258.54v25.44h-98.33v-25.44h22.78l1.9-1.9-17.08-40.25H67.96l-15.57,40.25,1.9,1.9h22.78v25.44H0v-25.44H20.88l1.9-1.9L113.52,37.19h20.12l94.54,219.45,1.9,1.9h20.12Zm-101.37-67.96l-36.07-85.05h-1.9l-33.03,85.05h71Z"/>
    <path d="M299.93,258.54h28.48l1.9-1.9V63.77h-54.67l-29.61,54.29h-7.21V37.19h230.08V118.06h-7.21l-29.23-54.29h-54.67v192.87l1.9,1.9h28.48v25.44h-108.21v-25.44Z"/>
    <path d="M1094.56,258.54v25.44h-108.21v-25.44h28.47l1.9-1.9-9.87-162.12-82.77,189.46h-15.95l-77.45-192.11-10.25,164.78,1.9,1.9h28.48v25.44h-88.08v-25.44h28.48l1.9-1.9,11.77-190.97-34.17-22.78v-5.7h85.8l69.48,171.23h2.66l74.42-171.23h82.39v5.7l-33.79,21.64,12.53,192.11,1.9,1.9h28.47Z"/>
    <path d="M1122.27,257.4h28.48l1.9-1.9V65.66l-34.17-22.78v-5.7h115.8v5.7l-34.17,22.78V255.5l1.9,1.9h28.48v26.58h-108.21v-26.58Z"/>
    <path d="M1264.64,167.04c0-89.22,61.51-135.54,130.99-135.54,24.68,0,45.94,3.8,67.58,11.01V116.54h-5.7l-25.06-43.66c-12.15-11.39-25.06-17.46-47.08-17.46-42.52,0-67.58,38.35-67.58,104.03s29.23,105.93,70.62,105.93c22.02,0,37.21-8.35,47.84-18.6l25.82-49.36h5.7v74.04c-19.36,11.01-48.22,18.22-78.97,18.22-67.58,0-124.15-45.18-124.15-122.63Z"/>
    <path d="M1510.28,269.93v-74.42h6.45l22.02,42.52c17.46,18.98,33.41,25.82,52.01,25.82,23.54,0,38.35-11.01,38.35-31.89,0-17.08-10.63-29.99-55.05-52.01-40.62-20.12-63.03-42.52-63.03-77.83,0-43.66,34.93-70.62,82.39-70.62,22.02,0,43.66,6.07,61.51,15.95V118.82h-5.69l-28.48-46.7c-8.35-9.11-18.6-15.19-37.21-15.19s-32.65,11.77-32.65,31.13c0,17.46,10.63,28.48,50.88,49.74,51.25,26.96,67.2,47.08,67.2,77.83,0,41.38-29.61,74.04-85.43,74.04-26.58,0-51.63-7.59-73.28-19.74Z"/>
  </g>
</svg>