<?xml version="1.0" encoding="utf-8"?>
<!-- Generator: Adobe Illustrator 26.5.0, SVG Export Plug-In . SVG Version: 6.00 Build 0)  -->
<svg version="1.1" id="Layer_1" xmlns="http://www.w3.org/2000/svg" xmlns:xlink="http://www.w3.org/1999/xlink" x="0px" y="0px"
	 viewBox="0 0 785.8 658" style="enable-background:new 0 0 785.8 658;" xml:space="preserve">
<style type="text/css">
	.st0{fill:#CACACA;}
	.st1{fill:#FFB8B8;}
	.st2{fill:#E4E4E4;}
	.st3{fill:#2F2E41;}
	.st4{fill:#23EBB9;}
	.st5{fill:#9F616A;}
	.st6{fill:#E5E5E5;}
	.st7{fill:#3F3D56;}
</style>
<g>
	<ellipse class="st0" cx="404.2" cy="381.7" rx="166.1" ry="34.6"/>
	<rect x="394.4" y="398.7" class="st0" width="19.5" height="258.6"/>
	<path class="st1" d="M518.4,365.3c4.2-8.1,14.1-11.4,22.3-7.2c0.6,0.3,1.1,0.6,1.7,0.9c0.6,0.5,1.2,0.9,1.8,1.4l71.7-17l5.3-17.6
		l28.6,4.7l-5.9,29.5c-1.5,7.2-7.5,12.6-14.9,13.4l-81.2,7.2c-0.3,0.5-0.5,0.9-0.8,1.4c-5.1,7.7-15.3,9.8-22.9,4.7
		c-0.5-0.3-1.1-0.8-1.5-1.1c-0.5-0.5-1.1-0.9-1.5-1.4C516.3,379,515.3,371.5,518.4,365.3z"/>
	<path class="st2" d="M674,490.3h-72.2c0,2.1-74.4,3.8-74.4,3.8c-1.2,0.9-2.3,2-3.2,3c-2.9,3.3-4.4,7.7-4.4,12v3
		c0,10.4,8.4,18.8,18.8,18.8H674c10.4,0,18.8-8.4,18.8-18.8v-3C692.8,498.7,684.4,490.3,674,490.3z"/>
	<rect x="595.5" y="530.1" class="st2" width="19.5" height="126.3"/>
	<path class="st2" d="M539.9,655.6c0,2.1,29.6,0.8,66.1,0.8s66.1,1.4,66.1-0.8s-29.6-18.8-66.1-18.8S539.9,653.5,539.9,655.6z"/>
	<polygon class="st1" points="559,639.4 540.7,639.4 531.8,591.6 559,591.6 	"/>
	<path class="st3" d="M563.7,657.3h-59.4v-0.8c0-12.8,10.4-23.2,23.2-23.2l0,0l0,0h36.2V657.3z"/>
	<path class="st3" d="M531.5,609.8l-36.7-82.4c-6.3-14.4-0.6-31.3,13.2-38.8l79.7-42.7l36.4-3.2l33.5-3l0.3,0.5
		c0.3,0.5,7.5,12.9,2.7,26.6c-3.8,10.4-13.4,18.5-28.6,24.1c-35.6,13.1-76.8,24.2-92.9,28.4c-1.5,0.3-2.7,1.4-3.3,2.7
		c-0.8,1.4-0.8,2.9-0.3,4.2l34.1,76.7c1.4,3.5-0.5,7.4-4.1,8.7c-0.6,0.2-1.1,0.3-1.7,0.5l-25.6,1.8c-0.2,0-0.5,0-0.6,0
		C535,613.7,532.5,612.2,531.5,609.8z"/>
	<polygon class="st1" points="571,639.4 552.7,639.4 543.8,591.6 571,591.6 	"/>
	<path class="st3" d="M575.7,657.3h-59.4v-0.8c0-12.8,10.4-23.2,23.2-23.2l0,0l0,0h36.2V657.3z"/>
	<path class="st3" d="M545,614.3l-36.7-82.4c-6.3-14.4-0.6-31.3,13.2-38.8l79.7-42.7l36.4-3.2l26.3-2.3v-0.3
		c0.3,0.5,7.5,12.9,2.7,26.6c-3.8,10.4-5.9,18.5-21,24.1c-35.6,13.1-76.8,24.2-92.9,28.4c-1.5,0.3-2.7,1.4-3.3,2.7
		c-0.8,1.4-0.8,2.9-0.3,4.2l34.1,76.7c1.4,3.5-0.5,7.4-4.1,8.7c-0.6,0.2-1.1,0.3-1.7,0.5l-25.6,1.8c-0.2,0-0.5,0-0.6,0
		C548.5,618.2,546.1,616.7,545,614.3z"/>
	<path class="st4" d="M614.2,446.5c-1.8-1.2-27.1,12-31.6,1.5c21-52.6,6.6-75.3,19.4-105.5c4.7-10.5,13.8-18.3,25-21.3l33.4-1.7
		l0.2,0.2c15.5,7.5,24.2,24.5,21.3,41.5c-0.2,32.8-19.7,57.9-12.9,81.6c0.6,2,0.3,4.2-0.8,6c-1.1,1.8-2.7,3-4.7,3.5l-44.2-5.9
		c-2.1,0.5-4.4,0-6-1.2L614.2,446.5z"/>
	<circle class="st1" cx="649.4" cy="270" r="37"/>
	<path class="st3" d="M661.1,304c-2,0.9-6-14.7-4.2-17.9c2.7-4.7,2.6-4.7,4.4-7.7c1.8-3,2.1-7.2-0.2-9.9c-2.3-2.7-7.7-2.4-8.7,1.1
		c0.6-6.5-5.7-11.6-12-13.1c-6.3-1.5-12.9-0.6-19.4-1.8c-7.4-1.5-15-7.7-12-15.8c0.5-1.4,1.2-2.6,2.3-3.6c3.5-3.8,8.1-5.4,12.8-7.1
		c9.6-3.3,19.5-6.6,29.8-6.3c17.1,0.9,32.2,11.9,38.2,28c0.8,2,1.2,4.1,1.7,6c3.5,18.8-7.4,37.4-25.3,44.5L661.1,304z"/>
	<path class="st2" d="M115.7,479.4H172c0,2.4,61.6,4.4,61.6,4.4c1.4,1.1,2.6,2.3,3.8,3.5c3.3,3.9,5.1,8.9,5.1,14v3.5
		c0,12-9.8,21.9-21.9,21.9H115.7c-12,0-21.9-9.8-21.9-21.9v-3.5C93.7,489.2,103.5,479.4,115.7,479.4z"/>
	<rect x="156.7" y="525.8" class="st2" width="22.7" height="131.4"/>
	<path class="st2" d="M245.8,654.9c0,2.4-34.6,0.9-77.1,0.9s-77.1,1.5-77.1-0.9c0-2.4,34.6-21.9,77.1-21.9S245.8,652.3,245.8,654.9z
		"/>
	<polygon class="st5" points="261.2,639.9 278.2,639.9 286.1,574.5 261.2,574.5 	"/>
	<path class="st3" d="M256.8,634.3h33.4l0,0c11.7,0,21.2,9.5,21.2,21.2v0.8h-54.7L256.8,634.3z"/>
	<polygon class="st5" points="311.2,639.9 328.2,639.9 336.4,574.5 311.2,574.5 	"/>
	<path class="st3" d="M307,634.3h33.4l0,0c11.7,0,21.2,9.5,21.2,21.2v0.8h-54.7L307,634.3z"/>
	<path class="st5" d="M252.3,432.8c-0.9-7.1-7.4-12-14.4-11.1c-0.8,0.2-1.5,0.3-2.3,0.5l-18.8-22.6l-16.5,8.1l27.1,31.6
		c2.6,6.6,10.1,10.1,16.7,7.4C249.8,444.6,253.1,438.9,252.3,432.8z"/>
	<polygon class="st2" points="188.9,298.7 200,303.2 202.5,334.5 232.3,415.6 207.1,424 179.1,369.7 	"/>
	<circle class="st5" cx="160.2" cy="233.2" r="29.5"/>
	<path class="st3" d="M155.6,219.5c0,0,1.4-17.9,17.3-10.7s14.9-12.8,10.1-16.4c-4.8-3.6-4.7-4.5-22.3-2.1s-51.9,6.5-40.7,41.8
		s27.4,26.2,27.4,26.2s-15-31.9-6.2-25.7l8.9,6l4.7-1.1L155.6,219.5z"/>
	<path class="st3" d="M111.7,435.8c0,0-9.9,52.3,27.7,58.9s92,11.3,92,11.3l24.4,113.8l32.8-2.9c0,0-4.4-137-15-147.6
		c-10.7-10.7-61.6-42.1-61.6-42.1L111.7,435.8z"/>
	<path class="st3" d="M185.3,413.9l16.4,16.5c0,0,118.8,19.1,123.4,46.6c6.9,41.5,15,131.5,15,131.5l-35.8-2.7l-14-102.4l-57.1-12.9
		l-65.1-35.5L185.3,413.9z"/>
	<path class="st2" d="M184.4,287.3l-9.6-12.6l-31-0.5l0,0c-19.7,10.5-32,31-32,53.4v80.1c0,0,0.5,10.7-2,35.2
		c-2,21.2,110.5-12.3,110.5-12.3l-14.6-119.1C205.7,311.5,206.9,292.6,184.4,287.3z"/>
	<path class="st6" d="M504.3,275.6L504.3,275.6c-1.4-8.9-1.7-17.7-1.1-26.6l1.1-14.7l0,0C498.7,245.7,499.9,260.6,504.3,275.6z"/>
	<path class="st6" d="M508.8,278.1L508.8,278.1c-0.6-5.3-0.8-10.5-0.5-15.8l0.5-8.7l0,0C506.1,260.3,506.7,269.1,508.8,278.1z"/>
	<path class="st7" d="M528.5,289v5c0,0.8-0.6,1.5-1.5,1.5h-2.4c-0.3,0-0.5,0.2-0.5,0.5l0,0v40.3c0,0.8-0.6,1.5-1.5,1.5h-29.9
		c-0.8,0-1.5-0.6-1.5-1.5v-40.3c0-0.3-0.2-0.5-0.5-0.5h-3c-0.8,0-1.5-0.6-1.5-1.5v-5c0-0.8,0.6-1.5,1.5-1.5l0,0H527
		C527.7,287.5,528.5,288.1,528.5,289z"/>
	<rect x="491.1" y="296.3" class="st4" width="32.9" height="1.5"/>
	<path class="st4" d="M524,318c-10.7,4.7-22.7,4.7-33.4,0v-10.4c10.8-3.6,22.6-3.6,33.4,0V318z"/>
	<path class="st6" d="M301.3,308.7L301.3,308.7c-1.4-8.9-1.7-17.7-1.1-26.6l1.1-14.7l0,0C295.8,278.7,297,293.6,301.3,308.7
		L301.3,308.7z"/>
	<path class="st6" d="M305.8,311.2L305.8,311.2c-0.6-5.3-0.8-10.5-0.5-15.8l0.5-8.7l0,0C303.1,293.3,303.7,302.2,305.8,311.2z"/>
	<path class="st7" d="M325.5,322v5c0,0.8-0.6,1.5-1.5,1.5h-2.4c-0.3,0-0.5,0.2-0.5,0.5l0,0v40.3c0,0.8-0.6,1.5-1.5,1.5h-29.9
		c-0.8,0-1.5-0.6-1.5-1.5V329c0-0.3-0.2-0.5-0.5-0.5h-3c-0.8,0-1.5-0.6-1.5-1.5v-5c0-0.8,0.6-1.5,1.5-1.5l0,0H324
		C324.8,320.5,325.5,321.1,325.5,322z"/>
	<rect x="288.1" y="329.4" class="st4" width="32.9" height="1.5"/>
	<path class="st4" d="M321,351.1c-10.7,4.7-22.7,4.7-33.4,0v-10.4c10.8-3.6,22.6-3.6,33.4,0V351.1z"/>
	<path class="st1" d="M579.6,395.3l-64.2-50.7c-0.5,0.2-1.1,0.3-1.5,0.5c-4.5,1.1-9.5,0.2-13.2-2.6c-3.9-2.7-6.5-6.9-6.9-11.6
		c-1.1-9,5.4-17.3,14.4-18.3c8.4-1.1,16.1,4.5,18,12.6c0.2,0.8,0.3,1.5,0.3,2.3l63.9,36.8l15.9-9.2l17.6,23l-24.8,17.6
		C593.3,399.9,585.3,399.6,579.6,395.3z"/>
	<path class="st4" d="M631.6,385.3l-36.5-25l17.1-24.4c4.7-6.6,13.5-9,20.9-5.4l0,0c7.5,3.6,11.3,12,8.9,20L631.6,385.3z"/>
	<path class="st5" d="M302.4,337.7c-6.3-3.3-14.1-0.9-17.4,5.4c-0.3,0.6-0.6,1.4-0.9,2.1l-29.3,2.6l-2.9,18.2l41.3-4.2
		c6.9,1.7,14-2.6,15.6-9.5C310.5,346.4,307.6,340.4,302.4,337.7L302.4,337.7z"/>
	<path class="st2" d="M127.1,310.9l-8.3,6.2c0,0-4.7,11.1,4.4,26s66.1,46,66.1,46l92.6-23.6l-13.2-25.9l-67.5,2
		C201.3,341.4,163.2,293.8,127.1,310.9z"/>
</g>
</svg>
