<svg id="Group_25" data-name="Group 25" xmlns="http://www.w3.org/2000/svg" width="61.076" height="61.075" viewBox="0 0 61.076 61.075">
  <path id="Path_82" data-name="Path 82" d="M47.232,23.88h-18.2a5.275,5.275,0,0,0-5.269,5.269v18.2a5.276,5.276,0,0,0,5.269,5.27h18.2a5.276,5.276,0,0,0,5.27-5.27v-18.2a5.276,5.276,0,0,0-5.27-5.269Zm-9.1,23.833a9.462,9.462,0,1,1,9.462-9.462A9.473,9.473,0,0,1,38.13,47.713ZM47.9,30.746a2.239,2.239,0,1,1,2.239-2.239A2.241,2.241,0,0,1,47.9,30.746Z" transform="translate(-7.592 -7.631)"/>
  <path id="Path_83" data-name="Path 83" d="M42.313,36.971a5.464,5.464,0,1,0,5.463,5.463A5.471,5.471,0,0,0,42.313,36.971Z" transform="translate(-11.775 -11.814)"/>
  <path id="Path_84" data-name="Path 84" d="M30.538,0A30.538,30.538,0,1,0,61.076,30.538,30.539,30.539,0,0,0,30.538,0ZM48.907,39.722a9.277,9.277,0,0,1-9.268,9.268h-18.2a9.278,9.278,0,0,1-9.268-9.268v-18.2a9.278,9.278,0,0,1,9.268-9.268h18.2a9.278,9.278,0,0,1,9.268,9.268Z"/>
</svg>
