<svg xmlns="http://www.w3.org/2000/svg" width="60" height="60" viewBox="0 0 60 60">
  <path id="Path_80" data-name="Path 80" d="M30,60A30,30,0,1,1,60,30,30,30,0,0,1,30,60Zm1.42-26.046c-.3-.576-.512-.96-.694-1.358-2.074-4.542-4.162-9.08-6.194-13.64A1.353,1.353,0,0,0,23.048,18c-2.5.05-5,.014-7.5.024a12.974,12.974,0,0,0-1.294.158c1.1,1.328,2.092,2.38,2.9,3.56a4.681,4.681,0,0,1,.856,2.342c.094,3.208-.174,6.436.1,9.622.3,3.526-.5,6.454-3.188,8.82A6.968,6.968,0,0,0,14,43.9H24.156a8.316,8.316,0,0,0-.964-1.356c-2.744-2.434-3.618-5.44-3.24-9.054A72.891,72.891,0,0,0,20,25.95a1.04,1.04,0,0,1,.558.564c2.534,5.52,5.054,11.05,7.614,16.56.176.378.644.62.974.926a4.386,4.386,0,0,0,.786-.98c1.2-2.97,2.36-5.956,3.534-8.936q1.614-4.1,3.24-8.188l.208.04v.936c0,3.626-.12,7.258.046,10.876.094,2.088-.356,3.718-2.1,4.942a6.3,6.3,0,0,0-1,1.222H47.17a9.834,9.834,0,0,0-1.194-1.286c-1.666-1.182-2.062-2.764-2-4.756.134-4.54.148-9.088-.006-13.626-.07-2.056.368-3.644,2.088-4.836a8.362,8.362,0,0,0,1.19-1.386c-3.046,0-5.7.036-8.352-.02a1.3,1.3,0,0,0-1.446,1c-1.748,4.454-3.536,8.892-5.316,13.334-.194.486-.42.956-.714,1.62Z"/>
</svg>
