<?xml version="1.0" encoding="utf-8"?>
<!-- Generator: Adobe Illustrator 27.1.1, SVG Export Plug-In . SVG Version: 6.00 Build 0)  -->
<svg version="1.1" id="Layer_1" xmlns="http://www.w3.org/2000/svg" xmlns:xlink="http://www.w3.org/1999/xlink" x="0px" y="0px"
	 viewBox="0 0 879.1 631.5" style="enable-background:new 0 0 879.1 631.5;" xml:space="preserve">
<style type="text/css">
	.st0{fill:#E6E6E6;}
	.st1{fill:#FFFFFF;}
	.st2{fill:#23EBB9;}
	.st3{fill:#2F2E41;}
	.st4{fill:#FFB6B6;}
	.st5{fill:#FFB8B8;}
	.st6{fill:#CACACA;}
	.st7{font-family:'LeagueSpartan-Black';}
	.st8{font-size:230.316px;}
</style>
<rect id="b93b1ef9-49b5-4354-905b-d9dddde45a10" x="346.2" y="248.8" class="st0" width="391" height="250.4"/>
<rect id="ef7485f9-8ecd-46d9-949e-abdd8aa9e360" x="357.3" y="280.2" class="st1" width="368.6" height="204.2"/>
<rect id="b4c2a7ec-beab-40bc-b587-23a202562f78" x="346" y="248.5" class="st2" width="391" height="16.6"/>
<circle id="bd6d3ebf-cb6f-4fcb-b7cd-ad5a287d3324" class="st1" cx="358.3" cy="257" r="3.1"/>
<circle id="efb1158e-7a7d-4adb-9063-fc7dc50c76d5" class="st1" cx="370" cy="257" r="3.1"/>
<circle id="b51f9e19-f36b-4f29-afd5-008bb0fc20dd" class="st1" cx="381.7" cy="257" r="3.1"/>
<rect id="b636d421-4358-445b-b124-1d058e78c733" x="402.7" y="297" class="st0" width="72.1" height="78.2"/>
<rect id="ab9c902d-64a9-4a2b-a9ec-6dc7022c80f6" x="505.6" y="297" class="st0" width="72.1" height="78.2"/>
<rect id="f4a232af-026e-479b-8040-5c62e5965d9e" x="608.5" y="297" class="st0" width="72.1" height="78.2"/>
<rect id="ada16aa4-f84d-4851-87ee-a2852d96226a" x="402.7" y="389.3" class="st0" width="72.1" height="78.2"/>
<rect id="ebfcbe07-3b81-4d69-a4f5-6a8318d20e8d" x="505.6" y="389.3" class="st0" width="72.1" height="78.2"/>
<rect id="ead16b6d-d132-49a9-a42f-1f570e523a46" x="608.5" y="389.3" class="st0" width="72.1" height="78.2"/>
<path id="ab8ff6e3-f37e-4992-8347-ee905fdba816-49" class="st1" d="M523,409.4l13.2-5.2l1.5,26c0,0,2.8,8,1.8,11
	c0,0,0.6,5.2-0.9,5.5c-1.5,0.3-5.8,0.9-6.1,0.6c-0.3-0.3-0.3-1.2-0.3-1.2s-3.1,2.1-3.4,4.6c0,0-12.9,4-13.2,0.3
	c-0.3-3.7,6.4-6.7,6.4-6.7l5.2-8L523,409.4z"/>
<path id="e647835b-1773-4993-9de9-376235a5ef39-50" class="st1" d="M550.9,409.4l13.2-5.2l1.5,26c0,0,2.8,8,1.8,11
	c0,0,0.6,5.2-0.9,5.5c-1.5,0.3-5.8,0.9-6.1,0.6c-0.3-0.3-0.3-1.2-0.3-1.2s-3.1,2.1-3.4,4.6c0,0-12.9,4-13.2,0.3
	c-0.3-3.7,6.4-6.7,6.4-6.7l5.2-8L550.9,409.4z"/>
<path id="ee50e840-b8e9-4cc0-9b2e-64e12816c6e5-51" d="M552.2,308.9c0,0-2.8,7.8,0.4,11.4l-2.7,9.3c0,0,9.6,28.9,6.9,32.9
	c0,0-10.3,5.1-30.8-1.8l8.3-32.4l-1.2-13.7l1.7-6.4l3.7-0.4c0,0-2.2,8.3,1.8,9.5c4,1.3,8-9.3,8-9.3L552.2,308.9z"/>
<path id="b668efb4-5504-4326-941b-9be143c4d030-52" class="st1" d="M422.7,359.5l3.5,1.4l16.9-22.2l5.3,26.1l3.5-0.6
	c2.3-22.5,4.1-45.4,1.9-56.2l-13.1-0.6l-6,19l-2.9,12.9L422.7,359.5z"/>
<path id="b699d661-049e-451c-8a7e-64343ac1c335-53" class="st1" d="M637.5,307.7c0,0-4.8,6.7-4.6,9.4c0.2,2.7,3.3,46.9,3.3,46.9
	l7.2,0.4l-2.1-31.8l1.8-8.6l4.4,40.1l8.8,0.2l-7.9-52l-1.5-4.6L637.5,307.7z"/>
<path id="a4f25674-ecb7-42aa-ae9a-d508200b11eb-54" d="M664.8,415.9c-1.3-1.5-3.5-2.4-5.6-2.8c0.1-0.2-6.4-1.5-6.5-1.3l-2.5-2
	l-7.5,3.9l-4.2-2.9l-2,0.7c0.1-0.3-6.1,0.7-6.1,0.7c-1.2,0-2.7,0.1-4.4,0.2c-5.9,0.5-6.4,15.8-6.4,15.8c2.7-1.1,5.6-1.7,8.6-1.8
	l1.6,18.3c8.2-0.7,16.8,0.1,25.8,2.1l4.2-14.4l9.8-3.8C669.5,428.8,667.8,419.6,664.8,415.9z"/>
<path id="b6d7fb25-d94e-4ba0-9382-3f72a4c565e4-55" class="st1" d="M455.4,407.2c-1.1-1.3-2.9-2-4.6-2.3c0.1-0.2-5.3-1.3-5.4-1
	l-2-1.6l-6.2,3.2l-3.5-2.4l-1.6,0.6c0.1-0.3-5,0.6-5,0.6c-1,0-2.2,0.1-3.6,0.2c-4.9,0.4-5.2,13-5.2,13c2.2-0.9,4.6-1.4,7.1-1.5
	l1.3,36.9c6.8-0.6,13.9,0.1,21.2,1.7l3.5-33.7l8-3.1C459.3,417.8,457.9,410.2,455.4,407.2z"/>
<path id="abb48a01-b3b6-4bc9-9e6f-5cc93133d8eb-56" class="st3" d="M800.5,417h34.6v-18.5c0-9.5-7.7-17.3-17.3-17.3
	s-17.3,7.7-17.3,17.3V417z"/>
<path id="f1b40e10-dbea-4491-93e9-bf21ee1afe95-57" class="st4" d="M785.1,622.8h-7.4l-3.5-28.7h11L785.1,622.8z"/>
<path id="f19e2682-d3fb-40a9-8809-be7b68a78ac9-58" class="st3" d="M787,620.4h-14.6c-5.2,0-9.3,4.2-9.3,9.3v0.3h24V620.4z"/>
<path id="b3618d44-3857-42e4-aed2-10e127155f21-59" class="st4" d="M873.9,612.9l-6.5,3.7l-17.2-23.2l9.6-5.4L873.9,612.9z"/>
<path id="a172411a-a77d-4e4f-ac70-c8342021cfb1-60" class="st3" d="M874.4,609.9l-12.8,7.2l0,0c-4.5,2.5-6.1,8.2-3.5,12.7l0.1,0.3
	l20.9-11.8L874.4,609.9z"/>
<path id="bd1532c7-07e2-44c0-82ff-fc8e0d37942d-61" class="st3" d="M826.4,493.8l0.6,2.9c0,0,1.7,1.7,0.9,2.6
	c-0.9,0.9-0.6,4.9-0.6,4.9c0.5,7.3,10.1,48.5,11.8,56.5c0,0,13.2,8.6,23.5,25.5c10.3,16.9,10.6,21.2,10.6,21.2l-11.5,4.9L833,577.6
	c0,0-8-4.9-10.9-9.2s-20.7-48.8-20.7-48.8l-10,46.5c0,0,0.6,16.9-2,27.8c-1.6,6.9-2.5,13.9-2.9,20.9l-13.5-1.4c0,0,0.9-40.7,2.3-45
	c0,0-6-49.6,6-69.4l9.7-25.9l9.5-3.7L826.4,493.8z"/>
<path id="e2a54528-859f-4f0e-9aca-6130773a8d3b-62" class="st5" d="M817.9,385.8c-18.1,0.3-18.1,27.2,0,27.5
	C836,413,836,386.1,817.9,385.8z"/>
<path id="aeace49c-5333-476f-965d-52da8fac2318-63" class="st3" d="M804,398.8h3.1l0.8-2.1l-0.4,2.1h16.8l-0.5-4.4l4.1,4.4h4.1v-2.4
	c0-7.7-6.2-14-14-14s-14,6.2-14,14l0,0v0L804,398.8z"/>
<path id="aa5a3aa9-e50b-4b43-b42d-0c1415925835-64" d="M799.3,421.4l34.2,0.3l-7.2,73.3c0,0-40-2.1-40-14.3l3.7-10.8L799.3,421.4z"
	/>
<path id="aca4d347-909c-4b66-b72e-6bb1477aee43-65" class="st4" d="M835,502c-2-2.4-1.6-6,0.8-8c0.3-0.2,0.5-0.4,0.8-0.6l-1.5-12.9
	l7.6-2.8l1.8,18.3c1.3,2.9,0.1,6.3-2.7,7.6C839.5,504.7,836.6,504.1,835,502z"/>
<path id="eab38d24-ad2d-4cbe-aaaa-db975580c866-66" d="M829,427.9l4.5-6.3c0,0,3.1-0.7,6.7,3.6c3.6,4.2,5.8,57.3,5.8,57.3l-13.3,3
	l-7.9-37.6L829,427.9z"/>
<polygon class="st1" points="753.6,485.5 754.6,532.6 785.1,548.8 840.7,538.8 842.1,489.8 806.8,477.4 "/>
<path class="st6" d="M785,549.3l-30.9-16.3l-1-47.9l53.8-8.1l0.1,0l35.6,12.5l-1.4,49.8L785,549.3z M755.1,532.3l30.1,15.9l55-9.8
	l1.3-48.3l-34.8-12.2l-52.7,8L755.1,532.3z"/>
<polygon class="st6" points="784.4,498.3 784.3,498.2 753.4,485.9 753.8,485 784.6,497.3 842,489.3 842.1,490.3 "/>
<rect x="784.3" y="497.8" transform="matrix(0.9999 -1.216377e-02 1.216377e-02 0.9999 -6.3068 9.5849)" class="st6" width="1" height="51"/>
<polygon class="st6" points="780.5,495.8 769.4,491.3 823,482.8 834.1,487.3 "/>
<rect x="759.6" y="495.4" transform="matrix(0.3955 -0.9185 0.9185 0.3955 -1.9524 1001.8197)" class="st6" width="1" height="14.1"/>
<rect x="765.4" y="511.4" transform="matrix(0.3955 -0.9185 0.9185 0.3955 -13.1884 1016.9136)" class="st2" width="1" height="14.1"/>
<polygon class="st1" points="583.8,551 584.8,598.1 615.3,614.3 670.9,604.3 672.3,555.3 637,542.9 "/>
<path class="st6" d="M615.2,614.8l-30.9-16.3l-1-47.9l53.8-8.1l0.1,0l35.6,12.5l-1.4,49.8L615.2,614.8z M585.3,597.8l30.1,15.9
	l55-9.8l1.3-48.3L637,543.4l-52.7,8L585.3,597.8z"/>
<polygon class="st6" points="614.6,563.8 614.5,563.7 583.6,551.4 584,550.5 614.8,562.8 672.2,554.8 672.3,555.8 "/>
<rect x="614.5" y="563.3" transform="matrix(0.9999 -1.216377e-02 1.216377e-02 0.9999 -7.116 7.5243)" class="st6" width="1" height="51"/>
<polygon class="st6" points="608,560.2 599.6,556.8 653.2,548.3 661.6,551.7 "/>
<rect x="589.8" y="560.9" transform="matrix(0.3955 -0.9185 0.9185 0.3955 -164.7589 885.4554)" class="st6" width="1" height="14.1"/>
<rect x="595.6" y="576.9" transform="matrix(0.3955 -0.9185 0.9185 0.3955 -175.9949 900.5495)" class="st2" width="1" height="14.1"/>
<polygon class="st2" points="636.8,557.4 638,612.2 673.4,630.9 737.9,619.4 739.5,562.5 698.6,548.1 "/>
<path d="M673.3,631.5l-35.9-19l-1.2-55.6l62.4-9.5l0.1,0l41.3,14.5l-1.6,57.8L673.3,631.5z M638.5,611.8l35,18.5l63.9-11.4l1.6-56
	l-40.4-14.2l-61.2,9.3L638.5,611.8z"/>
<polygon points="672.6,572.3 672.5,572.2 636.6,558 637,556.9 672.7,571.1 739.4,561.9 739.6,563 "/>
<rect x="672.5" y="571.7" transform="matrix(0.9999 -1.216377e-02 1.216377e-02 0.9999 -7.2643 8.2312)" width="1.1" height="59.2"/>
<polygon points="665.5,568.2 655.2,564.2 717.4,554.3 727.7,558.3 "/>
<rect x="643.7" y="568.9" transform="matrix(0.3955 -0.9185 0.9185 0.3955 -140.5126 940.6575)" width="1.1" height="16.3"/>
<rect x="650.5" y="587.6" transform="matrix(0.3955 -0.9185 0.9185 0.3955 -153.5559 958.1791)" class="st1" width="1.1" height="16.3"/>
<path id="af1e2e82-f248-43bd-a869-489ddf745161-67" class="st4" d="M770.9,493.3c2.8-1.3,4.1-4.7,2.7-7.6c-0.1-0.3-0.3-0.6-0.5-0.9
	l6.9-11l-5.7-5.8l-9.6,15.7c-2.5,2-2.8,5.6-0.8,8C765.7,493.8,768.5,494.4,770.9,493.3L770.9,493.3z"/>
<path id="ed6195a6-5e50-4e12-8380-54bfefa6b2ae-68" d="M804.5,424.2l-5-3.3c0,0-3.8,0.9-7.9,8.7c-4.1,7.8-20.5,42.9-20.5,42.9
	l6.8,6.9l18-27.5L804.5,424.2z"/>
<text transform="matrix(1 0 0 1 80.2783 212.6105)" class="st2 st7 st8">Vendr</text>
</svg>
